<mxfile host="65bd71144e">
    <diagram id="R2lEEEUBdFMjLlhIrx00" name="Page-1">
        <mxGraphModel dx="891" dy="683" grid="1" gridSize="10" guides="1" tooltips="1" connect="1" arrows="1" fold="1" page="1" pageScale="1" pageWidth="1920" pageHeight="1200" math="0" shadow="0" extFonts="Permanent Marker^https://fonts.googleapis.com/css?family=Permanent+Marker">
            <root>
                <mxCell id="0"/>
                <mxCell id="1" parent="0"/>
                <mxCell id="gmR-Pt_a6dd02n7bJfiR-14" value="users" style="shape=table;startSize=30;container=1;collapsible=1;childLayout=tableLayout;fixedRows=1;rowLines=0;fontStyle=1;align=center;resizeLast=1;" parent="1" vertex="1">
                    <mxGeometry x="620" y="335" width="180" height="400" as="geometry"/>
                </mxCell>
                <mxCell id="gmR-Pt_a6dd02n7bJfiR-15" value="" style="shape=partialRectangle;collapsible=0;dropTarget=0;pointerEvents=0;fillColor=none;top=0;left=0;bottom=1;right=0;points=[[0,0.5],[1,0.5]];portConstraint=eastwest;" parent="gmR-Pt_a6dd02n7bJfiR-14" vertex="1">
                    <mxGeometry y="30" width="180" height="30" as="geometry"/>
                </mxCell>
                <mxCell id="gmR-Pt_a6dd02n7bJfiR-16" value="PK" style="shape=partialRectangle;connectable=0;fillColor=none;top=0;left=0;bottom=0;right=0;fontStyle=1;overflow=hidden;" parent="gmR-Pt_a6dd02n7bJfiR-15" vertex="1">
                    <mxGeometry width="30" height="30" as="geometry"/>
                </mxCell>
                <mxCell id="gmR-Pt_a6dd02n7bJfiR-17" value="id" style="shape=partialRectangle;connectable=0;fillColor=none;top=0;left=0;bottom=0;right=0;align=left;spacingLeft=6;fontStyle=5;overflow=hidden;" parent="gmR-Pt_a6dd02n7bJfiR-15" vertex="1">
                    <mxGeometry x="30" width="150" height="30" as="geometry"/>
                </mxCell>
                <mxCell id="gmR-Pt_a6dd02n7bJfiR-18" value="" style="shape=partialRectangle;collapsible=0;dropTarget=0;pointerEvents=0;fillColor=none;top=0;left=0;bottom=0;right=0;points=[[0,0.5],[1,0.5]];portConstraint=eastwest;" parent="gmR-Pt_a6dd02n7bJfiR-14" vertex="1">
                    <mxGeometry y="60" width="180" height="20" as="geometry"/>
                </mxCell>
                <mxCell id="gmR-Pt_a6dd02n7bJfiR-19" value="" style="shape=partialRectangle;connectable=0;fillColor=none;top=0;left=0;bottom=0;right=0;editable=1;overflow=hidden;" parent="gmR-Pt_a6dd02n7bJfiR-18" vertex="1">
                    <mxGeometry width="30" height="20" as="geometry"/>
                </mxCell>
                <mxCell id="gmR-Pt_a6dd02n7bJfiR-20" value="first_name" style="shape=partialRectangle;connectable=0;fillColor=none;top=0;left=0;bottom=0;right=0;align=left;spacingLeft=6;overflow=hidden;" parent="gmR-Pt_a6dd02n7bJfiR-18" vertex="1">
                    <mxGeometry x="30" width="150" height="20" as="geometry"/>
                </mxCell>
                <mxCell id="gmR-Pt_a6dd02n7bJfiR-21" value="" style="shape=partialRectangle;collapsible=0;dropTarget=0;pointerEvents=0;fillColor=none;top=0;left=0;bottom=0;right=0;points=[[0,0.5],[1,0.5]];portConstraint=eastwest;" parent="gmR-Pt_a6dd02n7bJfiR-14" vertex="1">
                    <mxGeometry y="80" width="180" height="20" as="geometry"/>
                </mxCell>
                <mxCell id="gmR-Pt_a6dd02n7bJfiR-22" value="" style="shape=partialRectangle;connectable=0;fillColor=none;top=0;left=0;bottom=0;right=0;editable=1;overflow=hidden;" parent="gmR-Pt_a6dd02n7bJfiR-21" vertex="1">
                    <mxGeometry width="30" height="20" as="geometry"/>
                </mxCell>
                <mxCell id="gmR-Pt_a6dd02n7bJfiR-23" value="middle_name" style="shape=partialRectangle;connectable=0;fillColor=none;top=0;left=0;bottom=0;right=0;align=left;spacingLeft=6;overflow=hidden;" parent="gmR-Pt_a6dd02n7bJfiR-21" vertex="1">
                    <mxGeometry x="30" width="150" height="20" as="geometry"/>
                </mxCell>
                <mxCell id="gmR-Pt_a6dd02n7bJfiR-24" value="" style="shape=partialRectangle;collapsible=0;dropTarget=0;pointerEvents=0;fillColor=none;top=0;left=0;bottom=0;right=0;points=[[0,0.5],[1,0.5]];portConstraint=eastwest;" parent="gmR-Pt_a6dd02n7bJfiR-14" vertex="1">
                    <mxGeometry y="100" width="180" height="20" as="geometry"/>
                </mxCell>
                <mxCell id="gmR-Pt_a6dd02n7bJfiR-25" value="" style="shape=partialRectangle;connectable=0;fillColor=none;top=0;left=0;bottom=0;right=0;editable=1;overflow=hidden;" parent="gmR-Pt_a6dd02n7bJfiR-24" vertex="1">
                    <mxGeometry width="30" height="20" as="geometry"/>
                </mxCell>
                <mxCell id="gmR-Pt_a6dd02n7bJfiR-26" value="last_name" style="shape=partialRectangle;connectable=0;fillColor=none;top=0;left=0;bottom=0;right=0;align=left;spacingLeft=6;overflow=hidden;" parent="gmR-Pt_a6dd02n7bJfiR-24" vertex="1">
                    <mxGeometry x="30" width="150" height="20" as="geometry"/>
                </mxCell>
                <mxCell id="gmR-Pt_a6dd02n7bJfiR-38" value="" style="shape=partialRectangle;collapsible=0;dropTarget=0;pointerEvents=0;fillColor=none;top=0;left=0;bottom=0;right=0;points=[[0,0.5],[1,0.5]];portConstraint=eastwest;" parent="gmR-Pt_a6dd02n7bJfiR-14" vertex="1">
                    <mxGeometry y="120" width="180" height="20" as="geometry"/>
                </mxCell>
                <mxCell id="gmR-Pt_a6dd02n7bJfiR-39" value="" style="shape=partialRectangle;connectable=0;fillColor=none;top=0;left=0;bottom=0;right=0;editable=1;overflow=hidden;" parent="gmR-Pt_a6dd02n7bJfiR-38" vertex="1">
                    <mxGeometry width="30" height="20" as="geometry"/>
                </mxCell>
                <mxCell id="gmR-Pt_a6dd02n7bJfiR-40" value="username" style="shape=partialRectangle;connectable=0;fillColor=none;top=0;left=0;bottom=0;right=0;align=left;spacingLeft=6;overflow=hidden;" parent="gmR-Pt_a6dd02n7bJfiR-38" vertex="1">
                    <mxGeometry x="30" width="150" height="20" as="geometry"/>
                </mxCell>
                <mxCell id="gmR-Pt_a6dd02n7bJfiR-41" value="" style="shape=partialRectangle;collapsible=0;dropTarget=0;pointerEvents=0;fillColor=none;top=0;left=0;bottom=0;right=0;points=[[0,0.5],[1,0.5]];portConstraint=eastwest;" parent="gmR-Pt_a6dd02n7bJfiR-14" vertex="1">
                    <mxGeometry y="140" width="180" height="20" as="geometry"/>
                </mxCell>
                <mxCell id="gmR-Pt_a6dd02n7bJfiR-42" value="" style="shape=partialRectangle;connectable=0;fillColor=none;top=0;left=0;bottom=0;right=0;editable=1;overflow=hidden;" parent="gmR-Pt_a6dd02n7bJfiR-41" vertex="1">
                    <mxGeometry width="30" height="20" as="geometry"/>
                </mxCell>
                <mxCell id="gmR-Pt_a6dd02n7bJfiR-43" value="password" style="shape=partialRectangle;connectable=0;fillColor=none;top=0;left=0;bottom=0;right=0;align=left;spacingLeft=6;overflow=hidden;" parent="gmR-Pt_a6dd02n7bJfiR-41" vertex="1">
                    <mxGeometry x="30" width="150" height="20" as="geometry"/>
                </mxCell>
                <mxCell id="gmR-Pt_a6dd02n7bJfiR-44" value="" style="shape=partialRectangle;collapsible=0;dropTarget=0;pointerEvents=0;fillColor=none;top=0;left=0;bottom=0;right=0;points=[[0,0.5],[1,0.5]];portConstraint=eastwest;" parent="gmR-Pt_a6dd02n7bJfiR-14" vertex="1">
                    <mxGeometry y="160" width="180" height="20" as="geometry"/>
                </mxCell>
                <mxCell id="gmR-Pt_a6dd02n7bJfiR-45" value="" style="shape=partialRectangle;connectable=0;fillColor=none;top=0;left=0;bottom=0;right=0;editable=1;overflow=hidden;" parent="gmR-Pt_a6dd02n7bJfiR-44" vertex="1">
                    <mxGeometry width="30" height="20" as="geometry"/>
                </mxCell>
                <mxCell id="gmR-Pt_a6dd02n7bJfiR-46" value="email" style="shape=partialRectangle;connectable=0;fillColor=none;top=0;left=0;bottom=0;right=0;align=left;spacingLeft=6;overflow=hidden;" parent="gmR-Pt_a6dd02n7bJfiR-44" vertex="1">
                    <mxGeometry x="30" width="150" height="20" as="geometry"/>
                </mxCell>
                <mxCell id="gmR-Pt_a6dd02n7bJfiR-47" value="" style="shape=partialRectangle;collapsible=0;dropTarget=0;pointerEvents=0;fillColor=none;top=0;left=0;bottom=0;right=0;points=[[0,0.5],[1,0.5]];portConstraint=eastwest;" parent="gmR-Pt_a6dd02n7bJfiR-14" vertex="1">
                    <mxGeometry y="180" width="180" height="20" as="geometry"/>
                </mxCell>
                <mxCell id="gmR-Pt_a6dd02n7bJfiR-48" value="" style="shape=partialRectangle;connectable=0;fillColor=none;top=0;left=0;bottom=0;right=0;editable=1;overflow=hidden;" parent="gmR-Pt_a6dd02n7bJfiR-47" vertex="1">
                    <mxGeometry width="30" height="20" as="geometry"/>
                </mxCell>
                <mxCell id="gmR-Pt_a6dd02n7bJfiR-49" value="gender" style="shape=partialRectangle;connectable=0;fillColor=none;top=0;left=0;bottom=0;right=0;align=left;spacingLeft=6;overflow=hidden;" parent="gmR-Pt_a6dd02n7bJfiR-47" vertex="1">
                    <mxGeometry x="30" width="150" height="20" as="geometry"/>
                </mxCell>
                <mxCell id="gmR-Pt_a6dd02n7bJfiR-50" value="" style="shape=partialRectangle;collapsible=0;dropTarget=0;pointerEvents=0;fillColor=none;top=0;left=0;bottom=0;right=0;points=[[0,0.5],[1,0.5]];portConstraint=eastwest;" parent="gmR-Pt_a6dd02n7bJfiR-14" vertex="1">
                    <mxGeometry y="200" width="180" height="20" as="geometry"/>
                </mxCell>
                <mxCell id="gmR-Pt_a6dd02n7bJfiR-51" value="" style="shape=partialRectangle;connectable=0;fillColor=none;top=0;left=0;bottom=0;right=0;editable=1;overflow=hidden;" parent="gmR-Pt_a6dd02n7bJfiR-50" vertex="1">
                    <mxGeometry width="30" height="20" as="geometry"/>
                </mxCell>
                <mxCell id="gmR-Pt_a6dd02n7bJfiR-52" value="profile_pic" style="shape=partialRectangle;connectable=0;fillColor=none;top=0;left=0;bottom=0;right=0;align=left;spacingLeft=6;overflow=hidden;" parent="gmR-Pt_a6dd02n7bJfiR-50" vertex="1">
                    <mxGeometry x="30" width="150" height="20" as="geometry"/>
                </mxCell>
                <mxCell id="gmR-Pt_a6dd02n7bJfiR-53" value="" style="shape=partialRectangle;collapsible=0;dropTarget=0;pointerEvents=0;fillColor=none;top=0;left=0;bottom=0;right=0;points=[[0,0.5],[1,0.5]];portConstraint=eastwest;" parent="gmR-Pt_a6dd02n7bJfiR-14" vertex="1">
                    <mxGeometry y="220" width="180" height="20" as="geometry"/>
                </mxCell>
                <mxCell id="gmR-Pt_a6dd02n7bJfiR-54" value="" style="shape=partialRectangle;connectable=0;fillColor=none;top=0;left=0;bottom=0;right=0;editable=1;overflow=hidden;" parent="gmR-Pt_a6dd02n7bJfiR-53" vertex="1">
                    <mxGeometry width="30" height="20" as="geometry"/>
                </mxCell>
                <mxCell id="gmR-Pt_a6dd02n7bJfiR-55" value="birthdate" style="shape=partialRectangle;connectable=0;fillColor=none;top=0;left=0;bottom=0;right=0;align=left;spacingLeft=6;overflow=hidden;" parent="gmR-Pt_a6dd02n7bJfiR-53" vertex="1">
                    <mxGeometry x="30" width="150" height="20" as="geometry"/>
                </mxCell>
                <mxCell id="gmR-Pt_a6dd02n7bJfiR-56" value="" style="shape=partialRectangle;collapsible=0;dropTarget=0;pointerEvents=0;fillColor=none;top=0;left=0;bottom=0;right=0;points=[[0,0.5],[1,0.5]];portConstraint=eastwest;" parent="gmR-Pt_a6dd02n7bJfiR-14" vertex="1">
                    <mxGeometry y="240" width="180" height="20" as="geometry"/>
                </mxCell>
                <mxCell id="gmR-Pt_a6dd02n7bJfiR-57" value="" style="shape=partialRectangle;connectable=0;fillColor=none;top=0;left=0;bottom=0;right=0;editable=1;overflow=hidden;" parent="gmR-Pt_a6dd02n7bJfiR-56" vertex="1">
                    <mxGeometry width="30" height="20" as="geometry"/>
                </mxCell>
                <mxCell id="gmR-Pt_a6dd02n7bJfiR-58" value="contact_number" style="shape=partialRectangle;connectable=0;fillColor=none;top=0;left=0;bottom=0;right=0;align=left;spacingLeft=6;overflow=hidden;" parent="gmR-Pt_a6dd02n7bJfiR-56" vertex="1">
                    <mxGeometry x="30" width="150" height="20" as="geometry"/>
                </mxCell>
                <mxCell id="gmR-Pt_a6dd02n7bJfiR-59" value="" style="shape=partialRectangle;collapsible=0;dropTarget=0;pointerEvents=0;fillColor=none;top=0;left=0;bottom=0;right=0;points=[[0,0.5],[1,0.5]];portConstraint=eastwest;" parent="gmR-Pt_a6dd02n7bJfiR-14" vertex="1">
                    <mxGeometry y="260" width="180" height="20" as="geometry"/>
                </mxCell>
                <mxCell id="gmR-Pt_a6dd02n7bJfiR-60" value="" style="shape=partialRectangle;connectable=0;fillColor=none;top=0;left=0;bottom=0;right=0;editable=1;overflow=hidden;" parent="gmR-Pt_a6dd02n7bJfiR-59" vertex="1">
                    <mxGeometry width="30" height="20" as="geometry"/>
                </mxCell>
                <mxCell id="gmR-Pt_a6dd02n7bJfiR-61" value="email_code" style="shape=partialRectangle;connectable=0;fillColor=none;top=0;left=0;bottom=0;right=0;align=left;spacingLeft=6;overflow=hidden;" parent="gmR-Pt_a6dd02n7bJfiR-59" vertex="1">
                    <mxGeometry x="30" width="150" height="20" as="geometry"/>
                </mxCell>
                <mxCell id="gmR-Pt_a6dd02n7bJfiR-62" value="" style="shape=partialRectangle;collapsible=0;dropTarget=0;pointerEvents=0;fillColor=none;top=0;left=0;bottom=0;right=0;points=[[0,0.5],[1,0.5]];portConstraint=eastwest;" parent="gmR-Pt_a6dd02n7bJfiR-14" vertex="1">
                    <mxGeometry y="280" width="180" height="20" as="geometry"/>
                </mxCell>
                <mxCell id="gmR-Pt_a6dd02n7bJfiR-63" value="FK" style="shape=partialRectangle;connectable=0;fillColor=none;top=0;left=0;bottom=0;right=0;editable=1;overflow=hidden;fontStyle=1" parent="gmR-Pt_a6dd02n7bJfiR-62" vertex="1">
                    <mxGeometry width="30" height="20" as="geometry"/>
                </mxCell>
                <mxCell id="gmR-Pt_a6dd02n7bJfiR-64" value="role" style="shape=partialRectangle;connectable=0;fillColor=none;top=0;left=0;bottom=0;right=0;align=left;spacingLeft=6;overflow=hidden;" parent="gmR-Pt_a6dd02n7bJfiR-62" vertex="1">
                    <mxGeometry x="30" width="150" height="20" as="geometry"/>
                </mxCell>
                <mxCell id="gmR-Pt_a6dd02n7bJfiR-65" value="" style="shape=partialRectangle;collapsible=0;dropTarget=0;pointerEvents=0;fillColor=none;top=0;left=0;bottom=0;right=0;points=[[0,0.5],[1,0.5]];portConstraint=eastwest;" parent="gmR-Pt_a6dd02n7bJfiR-14" vertex="1">
                    <mxGeometry y="300" width="180" height="20" as="geometry"/>
                </mxCell>
                <mxCell id="gmR-Pt_a6dd02n7bJfiR-66" value="" style="shape=partialRectangle;connectable=0;fillColor=none;top=0;left=0;bottom=0;right=0;editable=1;overflow=hidden;" parent="gmR-Pt_a6dd02n7bJfiR-65" vertex="1">
                    <mxGeometry width="30" height="20" as="geometry"/>
                </mxCell>
                <mxCell id="gmR-Pt_a6dd02n7bJfiR-67" value="status" style="shape=partialRectangle;connectable=0;fillColor=none;top=0;left=0;bottom=0;right=0;align=left;spacingLeft=6;overflow=hidden;" parent="gmR-Pt_a6dd02n7bJfiR-65" vertex="1">
                    <mxGeometry x="30" width="150" height="20" as="geometry"/>
                </mxCell>
                <mxCell id="gmR-Pt_a6dd02n7bJfiR-68" value="" style="shape=partialRectangle;collapsible=0;dropTarget=0;pointerEvents=0;fillColor=none;top=0;left=0;bottom=0;right=0;points=[[0,0.5],[1,0.5]];portConstraint=eastwest;" parent="gmR-Pt_a6dd02n7bJfiR-14" vertex="1">
                    <mxGeometry y="320" width="180" height="20" as="geometry"/>
                </mxCell>
                <mxCell id="gmR-Pt_a6dd02n7bJfiR-69" value="" style="shape=partialRectangle;connectable=0;fillColor=none;top=0;left=0;bottom=0;right=0;editable=1;overflow=hidden;" parent="gmR-Pt_a6dd02n7bJfiR-68" vertex="1">
                    <mxGeometry width="30" height="20" as="geometry"/>
                </mxCell>
                <mxCell id="gmR-Pt_a6dd02n7bJfiR-70" value="email_code" style="shape=partialRectangle;connectable=0;fillColor=none;top=0;left=0;bottom=0;right=0;align=left;spacingLeft=6;overflow=hidden;" parent="gmR-Pt_a6dd02n7bJfiR-68" vertex="1">
                    <mxGeometry x="30" width="150" height="20" as="geometry"/>
                </mxCell>
                <mxCell id="gmR-Pt_a6dd02n7bJfiR-71" value="" style="shape=partialRectangle;collapsible=0;dropTarget=0;pointerEvents=0;fillColor=none;top=0;left=0;bottom=0;right=0;points=[[0,0.5],[1,0.5]];portConstraint=eastwest;" parent="gmR-Pt_a6dd02n7bJfiR-14" vertex="1">
                    <mxGeometry y="340" width="180" height="20" as="geometry"/>
                </mxCell>
                <mxCell id="gmR-Pt_a6dd02n7bJfiR-72" value="" style="shape=partialRectangle;connectable=0;fillColor=none;top=0;left=0;bottom=0;right=0;editable=1;overflow=hidden;" parent="gmR-Pt_a6dd02n7bJfiR-71" vertex="1">
                    <mxGeometry width="30" height="20" as="geometry"/>
                </mxCell>
                <mxCell id="gmR-Pt_a6dd02n7bJfiR-73" value="created_at" style="shape=partialRectangle;connectable=0;fillColor=none;top=0;left=0;bottom=0;right=0;align=left;spacingLeft=6;overflow=hidden;" parent="gmR-Pt_a6dd02n7bJfiR-71" vertex="1">
                    <mxGeometry x="30" width="150" height="20" as="geometry"/>
                </mxCell>
                <mxCell id="gmR-Pt_a6dd02n7bJfiR-74" value="" style="shape=partialRectangle;collapsible=0;dropTarget=0;pointerEvents=0;fillColor=none;top=0;left=0;bottom=0;right=0;points=[[0,0.5],[1,0.5]];portConstraint=eastwest;" parent="gmR-Pt_a6dd02n7bJfiR-14" vertex="1">
                    <mxGeometry y="360" width="180" height="20" as="geometry"/>
                </mxCell>
                <mxCell id="gmR-Pt_a6dd02n7bJfiR-75" value="" style="shape=partialRectangle;connectable=0;fillColor=none;top=0;left=0;bottom=0;right=0;editable=1;overflow=hidden;" parent="gmR-Pt_a6dd02n7bJfiR-74" vertex="1">
                    <mxGeometry width="30" height="20" as="geometry"/>
                </mxCell>
                <mxCell id="gmR-Pt_a6dd02n7bJfiR-76" value="updated_at" style="shape=partialRectangle;connectable=0;fillColor=none;top=0;left=0;bottom=0;right=0;align=left;spacingLeft=6;overflow=hidden;" parent="gmR-Pt_a6dd02n7bJfiR-74" vertex="1">
                    <mxGeometry x="30" width="150" height="20" as="geometry"/>
                </mxCell>
                <mxCell id="gmR-Pt_a6dd02n7bJfiR-77" value="" style="shape=partialRectangle;collapsible=0;dropTarget=0;pointerEvents=0;fillColor=none;top=0;left=0;bottom=0;right=0;points=[[0,0.5],[1,0.5]];portConstraint=eastwest;" parent="gmR-Pt_a6dd02n7bJfiR-14" vertex="1">
                    <mxGeometry y="380" width="180" height="20" as="geometry"/>
                </mxCell>
                <mxCell id="gmR-Pt_a6dd02n7bJfiR-78" value="" style="shape=partialRectangle;connectable=0;fillColor=none;top=0;left=0;bottom=0;right=0;editable=1;overflow=hidden;" parent="gmR-Pt_a6dd02n7bJfiR-77" vertex="1">
                    <mxGeometry width="30" height="20" as="geometry"/>
                </mxCell>
                <mxCell id="gmR-Pt_a6dd02n7bJfiR-79" value="deleted_at" style="shape=partialRectangle;connectable=0;fillColor=none;top=0;left=0;bottom=0;right=0;align=left;spacingLeft=6;overflow=hidden;" parent="gmR-Pt_a6dd02n7bJfiR-77" vertex="1">
                    <mxGeometry x="30" width="150" height="20" as="geometry"/>
                </mxCell>
                <mxCell id="gmR-Pt_a6dd02n7bJfiR-80" value="logins" style="shape=table;startSize=30;container=1;collapsible=1;childLayout=tableLayout;fixedRows=1;rowLines=0;fontStyle=1;align=center;resizeLast=1;" parent="1" vertex="1">
                    <mxGeometry x="870" y="350" width="180" height="120" as="geometry"/>
                </mxCell>
                <mxCell id="gmR-Pt_a6dd02n7bJfiR-81" value="" style="shape=partialRectangle;collapsible=0;dropTarget=0;pointerEvents=0;fillColor=none;top=0;left=0;bottom=1;right=0;points=[[0,0.5],[1,0.5]];portConstraint=eastwest;" parent="gmR-Pt_a6dd02n7bJfiR-80" vertex="1">
                    <mxGeometry y="30" width="180" height="30" as="geometry"/>
                </mxCell>
                <mxCell id="gmR-Pt_a6dd02n7bJfiR-82" value="PK" style="shape=partialRectangle;connectable=0;fillColor=none;top=0;left=0;bottom=0;right=0;fontStyle=1;overflow=hidden;" parent="gmR-Pt_a6dd02n7bJfiR-81" vertex="1">
                    <mxGeometry width="30" height="30" as="geometry"/>
                </mxCell>
                <mxCell id="gmR-Pt_a6dd02n7bJfiR-83" value="id" style="shape=partialRectangle;connectable=0;fillColor=none;top=0;left=0;bottom=0;right=0;align=left;spacingLeft=6;fontStyle=5;overflow=hidden;" parent="gmR-Pt_a6dd02n7bJfiR-81" vertex="1">
                    <mxGeometry x="30" width="150" height="30" as="geometry"/>
                </mxCell>
                <mxCell id="gmR-Pt_a6dd02n7bJfiR-84" value="" style="shape=partialRectangle;collapsible=0;dropTarget=0;pointerEvents=0;fillColor=none;top=0;left=0;bottom=0;right=0;points=[[0,0.5],[1,0.5]];portConstraint=eastwest;" parent="gmR-Pt_a6dd02n7bJfiR-80" vertex="1">
                    <mxGeometry y="60" width="180" height="20" as="geometry"/>
                </mxCell>
                <mxCell id="gmR-Pt_a6dd02n7bJfiR-85" value="FK" style="shape=partialRectangle;connectable=0;fillColor=none;top=0;left=0;bottom=0;right=0;editable=1;overflow=hidden;fontStyle=1" parent="gmR-Pt_a6dd02n7bJfiR-84" vertex="1">
                    <mxGeometry width="30" height="20" as="geometry"/>
                </mxCell>
                <mxCell id="gmR-Pt_a6dd02n7bJfiR-86" value="user_id" style="shape=partialRectangle;connectable=0;fillColor=none;top=0;left=0;bottom=0;right=0;align=left;spacingLeft=6;overflow=hidden;" parent="gmR-Pt_a6dd02n7bJfiR-84" vertex="1">
                    <mxGeometry x="30" width="150" height="20" as="geometry"/>
                </mxCell>
                <mxCell id="gmR-Pt_a6dd02n7bJfiR-87" value="" style="shape=partialRectangle;collapsible=0;dropTarget=0;pointerEvents=0;fillColor=none;top=0;left=0;bottom=0;right=0;points=[[0,0.5],[1,0.5]];portConstraint=eastwest;" parent="gmR-Pt_a6dd02n7bJfiR-80" vertex="1">
                    <mxGeometry y="80" width="180" height="20" as="geometry"/>
                </mxCell>
                <mxCell id="gmR-Pt_a6dd02n7bJfiR-88" value="FK" style="shape=partialRectangle;connectable=0;fillColor=none;top=0;left=0;bottom=0;right=0;editable=1;overflow=hidden;fontStyle=1" parent="gmR-Pt_a6dd02n7bJfiR-87" vertex="1">
                    <mxGeometry width="30" height="20" as="geometry"/>
                </mxCell>
                <mxCell id="gmR-Pt_a6dd02n7bJfiR-89" value="role_id" style="shape=partialRectangle;connectable=0;fillColor=none;top=0;left=0;bottom=0;right=0;align=left;spacingLeft=6;overflow=hidden;" parent="gmR-Pt_a6dd02n7bJfiR-87" vertex="1">
                    <mxGeometry x="30" width="150" height="20" as="geometry"/>
                </mxCell>
                <mxCell id="gmR-Pt_a6dd02n7bJfiR-90" value="" style="shape=partialRectangle;collapsible=0;dropTarget=0;pointerEvents=0;fillColor=none;top=0;left=0;bottom=0;right=0;points=[[0,0.5],[1,0.5]];portConstraint=eastwest;" parent="gmR-Pt_a6dd02n7bJfiR-80" vertex="1">
                    <mxGeometry y="100" width="180" height="20" as="geometry"/>
                </mxCell>
                <mxCell id="gmR-Pt_a6dd02n7bJfiR-91" value="" style="shape=partialRectangle;connectable=0;fillColor=none;top=0;left=0;bottom=0;right=0;editable=1;overflow=hidden;" parent="gmR-Pt_a6dd02n7bJfiR-90" vertex="1">
                    <mxGeometry width="30" height="20" as="geometry"/>
                </mxCell>
                <mxCell id="gmR-Pt_a6dd02n7bJfiR-92" value="login_date" style="shape=partialRectangle;connectable=0;fillColor=none;top=0;left=0;bottom=0;right=0;align=left;spacingLeft=6;overflow=hidden;" parent="gmR-Pt_a6dd02n7bJfiR-90" vertex="1">
                    <mxGeometry x="30" width="150" height="20" as="geometry"/>
                </mxCell>
                <mxCell id="gmR-Pt_a6dd02n7bJfiR-93" value="" style="edgeStyle=entityRelationEdgeStyle;fontSize=12;html=1;endArrow=ERoneToMany;" parent="1" target="gmR-Pt_a6dd02n7bJfiR-84" edge="1">
                    <mxGeometry width="100" height="100" relative="1" as="geometry">
                        <mxPoint x="800" y="385" as="sourcePoint"/>
                        <mxPoint x="900" y="285" as="targetPoint"/>
                    </mxGeometry>
                </mxCell>
                <mxCell id="gmR-Pt_a6dd02n7bJfiR-94" value="roles" style="shape=table;startSize=30;container=1;collapsible=1;childLayout=tableLayout;fixedRows=1;rowLines=0;fontStyle=1;align=center;resizeLast=1;" parent="1" vertex="1">
                    <mxGeometry x="860" y="505" width="180" height="140" as="geometry"/>
                </mxCell>
                <mxCell id="gmR-Pt_a6dd02n7bJfiR-95" value="" style="shape=partialRectangle;collapsible=0;dropTarget=0;pointerEvents=0;fillColor=none;top=0;left=0;bottom=1;right=0;points=[[0,0.5],[1,0.5]];portConstraint=eastwest;" parent="gmR-Pt_a6dd02n7bJfiR-94" vertex="1">
                    <mxGeometry y="30" width="180" height="30" as="geometry"/>
                </mxCell>
                <mxCell id="gmR-Pt_a6dd02n7bJfiR-96" value="PK" style="shape=partialRectangle;connectable=0;fillColor=none;top=0;left=0;bottom=0;right=0;fontStyle=1;overflow=hidden;" parent="gmR-Pt_a6dd02n7bJfiR-95" vertex="1">
                    <mxGeometry width="30" height="30" as="geometry"/>
                </mxCell>
                <mxCell id="gmR-Pt_a6dd02n7bJfiR-97" value="id" style="shape=partialRectangle;connectable=0;fillColor=none;top=0;left=0;bottom=0;right=0;align=left;spacingLeft=6;fontStyle=5;overflow=hidden;" parent="gmR-Pt_a6dd02n7bJfiR-95" vertex="1">
                    <mxGeometry x="30" width="150" height="30" as="geometry"/>
                </mxCell>
                <mxCell id="gmR-Pt_a6dd02n7bJfiR-98" value="" style="shape=partialRectangle;collapsible=0;dropTarget=0;pointerEvents=0;fillColor=none;top=0;left=0;bottom=0;right=0;points=[[0,0.5],[1,0.5]];portConstraint=eastwest;" parent="gmR-Pt_a6dd02n7bJfiR-94" vertex="1">
                    <mxGeometry y="60" width="180" height="20" as="geometry"/>
                </mxCell>
                <mxCell id="gmR-Pt_a6dd02n7bJfiR-99" value="" style="shape=partialRectangle;connectable=0;fillColor=none;top=0;left=0;bottom=0;right=0;editable=1;overflow=hidden;" parent="gmR-Pt_a6dd02n7bJfiR-98" vertex="1">
                    <mxGeometry width="30" height="20" as="geometry"/>
                </mxCell>
                <mxCell id="gmR-Pt_a6dd02n7bJfiR-100" value="role_name" style="shape=partialRectangle;connectable=0;fillColor=none;top=0;left=0;bottom=0;right=0;align=left;spacingLeft=6;overflow=hidden;" parent="gmR-Pt_a6dd02n7bJfiR-98" vertex="1">
                    <mxGeometry x="30" width="150" height="20" as="geometry"/>
                </mxCell>
                <mxCell id="gmR-Pt_a6dd02n7bJfiR-101" value="" style="shape=partialRectangle;collapsible=0;dropTarget=0;pointerEvents=0;fillColor=none;top=0;left=0;bottom=0;right=0;points=[[0,0.5],[1,0.5]];portConstraint=eastwest;" parent="gmR-Pt_a6dd02n7bJfiR-94" vertex="1">
                    <mxGeometry y="80" width="180" height="20" as="geometry"/>
                </mxCell>
                <mxCell id="gmR-Pt_a6dd02n7bJfiR-102" value="" style="shape=partialRectangle;connectable=0;fillColor=none;top=0;left=0;bottom=0;right=0;editable=1;overflow=hidden;" parent="gmR-Pt_a6dd02n7bJfiR-101" vertex="1">
                    <mxGeometry width="30" height="20" as="geometry"/>
                </mxCell>
                <mxCell id="gmR-Pt_a6dd02n7bJfiR-103" value="created_at" style="shape=partialRectangle;connectable=0;fillColor=none;top=0;left=0;bottom=0;right=0;align=left;spacingLeft=6;overflow=hidden;" parent="gmR-Pt_a6dd02n7bJfiR-101" vertex="1">
                    <mxGeometry x="30" width="150" height="20" as="geometry"/>
                </mxCell>
                <mxCell id="gmR-Pt_a6dd02n7bJfiR-104" value="" style="shape=partialRectangle;collapsible=0;dropTarget=0;pointerEvents=0;fillColor=none;top=0;left=0;bottom=0;right=0;points=[[0,0.5],[1,0.5]];portConstraint=eastwest;" parent="gmR-Pt_a6dd02n7bJfiR-94" vertex="1">
                    <mxGeometry y="100" width="180" height="20" as="geometry"/>
                </mxCell>
                <mxCell id="gmR-Pt_a6dd02n7bJfiR-105" value="" style="shape=partialRectangle;connectable=0;fillColor=none;top=0;left=0;bottom=0;right=0;editable=1;overflow=hidden;" parent="gmR-Pt_a6dd02n7bJfiR-104" vertex="1">
                    <mxGeometry width="30" height="20" as="geometry"/>
                </mxCell>
                <mxCell id="gmR-Pt_a6dd02n7bJfiR-106" value="updated_at" style="shape=partialRectangle;connectable=0;fillColor=none;top=0;left=0;bottom=0;right=0;align=left;spacingLeft=6;overflow=hidden;" parent="gmR-Pt_a6dd02n7bJfiR-104" vertex="1">
                    <mxGeometry x="30" width="150" height="20" as="geometry"/>
                </mxCell>
                <mxCell id="gmR-Pt_a6dd02n7bJfiR-107" value="" style="shape=partialRectangle;collapsible=0;dropTarget=0;pointerEvents=0;fillColor=none;top=0;left=0;bottom=0;right=0;points=[[0,0.5],[1,0.5]];portConstraint=eastwest;" parent="gmR-Pt_a6dd02n7bJfiR-94" vertex="1">
                    <mxGeometry y="120" width="180" height="20" as="geometry"/>
                </mxCell>
                <mxCell id="gmR-Pt_a6dd02n7bJfiR-108" value="" style="shape=partialRectangle;connectable=0;fillColor=none;top=0;left=0;bottom=0;right=0;editable=1;overflow=hidden;" parent="gmR-Pt_a6dd02n7bJfiR-107" vertex="1">
                    <mxGeometry width="30" height="20" as="geometry"/>
                </mxCell>
                <mxCell id="gmR-Pt_a6dd02n7bJfiR-109" value="deleted_at" style="shape=partialRectangle;connectable=0;fillColor=none;top=0;left=0;bottom=0;right=0;align=left;spacingLeft=6;overflow=hidden;" parent="gmR-Pt_a6dd02n7bJfiR-107" vertex="1">
                    <mxGeometry x="30" width="150" height="20" as="geometry"/>
                </mxCell>
                <mxCell id="gmR-Pt_a6dd02n7bJfiR-110" value="" style="edgeStyle=entityRelationEdgeStyle;fontSize=12;html=1;endArrow=ERmandOne;startArrow=ERmandOne;" parent="1" source="gmR-Pt_a6dd02n7bJfiR-62" target="gmR-Pt_a6dd02n7bJfiR-95" edge="1">
                    <mxGeometry width="100" height="100" relative="1" as="geometry">
                        <mxPoint x="770" y="535" as="sourcePoint"/>
                        <mxPoint x="870" y="435" as="targetPoint"/>
                    </mxGeometry>
                </mxCell>
                <mxCell id="gmR-Pt_a6dd02n7bJfiR-111" value="permissions" style="shape=table;startSize=30;container=1;collapsible=1;childLayout=tableLayout;fixedRows=1;rowLines=0;fontStyle=1;align=center;resizeLast=1;" parent="1" vertex="1">
                    <mxGeometry x="1320" y="505" width="180" height="100" as="geometry"/>
                </mxCell>
                <mxCell id="gmR-Pt_a6dd02n7bJfiR-112" value="" style="shape=partialRectangle;collapsible=0;dropTarget=0;pointerEvents=0;fillColor=none;top=0;left=0;bottom=1;right=0;points=[[0,0.5],[1,0.5]];portConstraint=eastwest;" parent="gmR-Pt_a6dd02n7bJfiR-111" vertex="1">
                    <mxGeometry y="30" width="180" height="30" as="geometry"/>
                </mxCell>
                <mxCell id="gmR-Pt_a6dd02n7bJfiR-113" value="PK" style="shape=partialRectangle;connectable=0;fillColor=none;top=0;left=0;bottom=0;right=0;fontStyle=1;overflow=hidden;" parent="gmR-Pt_a6dd02n7bJfiR-112" vertex="1">
                    <mxGeometry width="30" height="30" as="geometry"/>
                </mxCell>
                <mxCell id="gmR-Pt_a6dd02n7bJfiR-114" value="id" style="shape=partialRectangle;connectable=0;fillColor=none;top=0;left=0;bottom=0;right=0;align=left;spacingLeft=6;fontStyle=5;overflow=hidden;" parent="gmR-Pt_a6dd02n7bJfiR-112" vertex="1">
                    <mxGeometry x="30" width="150" height="30" as="geometry"/>
                </mxCell>
                <mxCell id="gmR-Pt_a6dd02n7bJfiR-115" value="" style="shape=partialRectangle;collapsible=0;dropTarget=0;pointerEvents=0;fillColor=none;top=0;left=0;bottom=0;right=0;points=[[0,0.5],[1,0.5]];portConstraint=eastwest;" parent="gmR-Pt_a6dd02n7bJfiR-111" vertex="1">
                    <mxGeometry y="60" width="180" height="20" as="geometry"/>
                </mxCell>
                <mxCell id="gmR-Pt_a6dd02n7bJfiR-116" value="" style="shape=partialRectangle;connectable=0;fillColor=none;top=0;left=0;bottom=0;right=0;editable=1;overflow=hidden;" parent="gmR-Pt_a6dd02n7bJfiR-115" vertex="1">
                    <mxGeometry width="30" height="20" as="geometry"/>
                </mxCell>
                <mxCell id="gmR-Pt_a6dd02n7bJfiR-117" value="perm_mod" style="shape=partialRectangle;connectable=0;fillColor=none;top=0;left=0;bottom=0;right=0;align=left;spacingLeft=6;overflow=hidden;" parent="gmR-Pt_a6dd02n7bJfiR-115" vertex="1">
                    <mxGeometry x="30" width="150" height="20" as="geometry"/>
                </mxCell>
                <mxCell id="gmR-Pt_a6dd02n7bJfiR-118" value="" style="shape=partialRectangle;collapsible=0;dropTarget=0;pointerEvents=0;fillColor=none;top=0;left=0;bottom=0;right=0;points=[[0,0.5],[1,0.5]];portConstraint=eastwest;" parent="gmR-Pt_a6dd02n7bJfiR-111" vertex="1">
                    <mxGeometry y="80" width="180" height="20" as="geometry"/>
                </mxCell>
                <mxCell id="gmR-Pt_a6dd02n7bJfiR-119" value="" style="shape=partialRectangle;connectable=0;fillColor=none;top=0;left=0;bottom=0;right=0;editable=1;overflow=hidden;" parent="gmR-Pt_a6dd02n7bJfiR-118" vertex="1">
                    <mxGeometry width="30" height="20" as="geometry"/>
                </mxCell>
                <mxCell id="gmR-Pt_a6dd02n7bJfiR-120" value="desc" style="shape=partialRectangle;connectable=0;fillColor=none;top=0;left=0;bottom=0;right=0;align=left;spacingLeft=6;overflow=hidden;" parent="gmR-Pt_a6dd02n7bJfiR-118" vertex="1">
                    <mxGeometry x="30" width="150" height="20" as="geometry"/>
                </mxCell>
                <mxCell id="gmR-Pt_a6dd02n7bJfiR-137" value="role_permission" style="shape=table;startSize=30;container=1;collapsible=1;childLayout=tableLayout;fixedRows=1;rowLines=0;fontStyle=1;align=center;resizeLast=1;" parent="1" vertex="1">
                    <mxGeometry x="1100" y="505" width="180" height="180" as="geometry"/>
                </mxCell>
                <mxCell id="gmR-Pt_a6dd02n7bJfiR-138" value="" style="shape=partialRectangle;collapsible=0;dropTarget=0;pointerEvents=0;fillColor=none;top=0;left=0;bottom=1;right=0;points=[[0,0.5],[1,0.5]];portConstraint=eastwest;" parent="gmR-Pt_a6dd02n7bJfiR-137" vertex="1">
                    <mxGeometry y="30" width="180" height="30" as="geometry"/>
                </mxCell>
                <mxCell id="gmR-Pt_a6dd02n7bJfiR-139" value="PK" style="shape=partialRectangle;connectable=0;fillColor=none;top=0;left=0;bottom=0;right=0;fontStyle=1;overflow=hidden;" parent="gmR-Pt_a6dd02n7bJfiR-138" vertex="1">
                    <mxGeometry width="30" height="30" as="geometry"/>
                </mxCell>
                <mxCell id="gmR-Pt_a6dd02n7bJfiR-140" value="id" style="shape=partialRectangle;connectable=0;fillColor=none;top=0;left=0;bottom=0;right=0;align=left;spacingLeft=6;fontStyle=5;overflow=hidden;" parent="gmR-Pt_a6dd02n7bJfiR-138" vertex="1">
                    <mxGeometry x="30" width="150" height="30" as="geometry"/>
                </mxCell>
                <mxCell id="gmR-Pt_a6dd02n7bJfiR-141" value="" style="shape=partialRectangle;collapsible=0;dropTarget=0;pointerEvents=0;fillColor=none;top=0;left=0;bottom=0;right=0;points=[[0,0.5],[1,0.5]];portConstraint=eastwest;" parent="gmR-Pt_a6dd02n7bJfiR-137" vertex="1">
                    <mxGeometry y="60" width="180" height="20" as="geometry"/>
                </mxCell>
                <mxCell id="gmR-Pt_a6dd02n7bJfiR-142" value="FK" style="shape=partialRectangle;connectable=0;fillColor=none;top=0;left=0;bottom=0;right=0;editable=1;overflow=hidden;fontStyle=1" parent="gmR-Pt_a6dd02n7bJfiR-141" vertex="1">
                    <mxGeometry width="30" height="20" as="geometry"/>
                </mxCell>
                <mxCell id="gmR-Pt_a6dd02n7bJfiR-143" value="role_id" style="shape=partialRectangle;connectable=0;fillColor=none;top=0;left=0;bottom=0;right=0;align=left;spacingLeft=6;overflow=hidden;" parent="gmR-Pt_a6dd02n7bJfiR-141" vertex="1">
                    <mxGeometry x="30" width="150" height="20" as="geometry"/>
                </mxCell>
                <mxCell id="gmR-Pt_a6dd02n7bJfiR-144" value="" style="shape=partialRectangle;collapsible=0;dropTarget=0;pointerEvents=0;fillColor=none;top=0;left=0;bottom=0;right=0;points=[[0,0.5],[1,0.5]];portConstraint=eastwest;" parent="gmR-Pt_a6dd02n7bJfiR-137" vertex="1">
                    <mxGeometry y="80" width="180" height="20" as="geometry"/>
                </mxCell>
                <mxCell id="gmR-Pt_a6dd02n7bJfiR-145" value="" style="shape=partialRectangle;connectable=0;fillColor=none;top=0;left=0;bottom=0;right=0;editable=1;overflow=hidden;" parent="gmR-Pt_a6dd02n7bJfiR-144" vertex="1">
                    <mxGeometry width="30" height="20" as="geometry"/>
                </mxCell>
                <mxCell id="gmR-Pt_a6dd02n7bJfiR-146" value="perm_mod" style="shape=partialRectangle;connectable=0;fillColor=none;top=0;left=0;bottom=0;right=0;align=left;spacingLeft=6;overflow=hidden;" parent="gmR-Pt_a6dd02n7bJfiR-144" vertex="1">
                    <mxGeometry x="30" width="150" height="20" as="geometry"/>
                </mxCell>
                <mxCell id="gmR-Pt_a6dd02n7bJfiR-147" value="" style="shape=partialRectangle;collapsible=0;dropTarget=0;pointerEvents=0;fillColor=none;top=0;left=0;bottom=0;right=0;points=[[0,0.5],[1,0.5]];portConstraint=eastwest;" parent="gmR-Pt_a6dd02n7bJfiR-137" vertex="1">
                    <mxGeometry y="100" width="180" height="20" as="geometry"/>
                </mxCell>
                <mxCell id="gmR-Pt_a6dd02n7bJfiR-148" value="FK" style="shape=partialRectangle;connectable=0;fillColor=none;top=0;left=0;bottom=0;right=0;editable=1;overflow=hidden;fontStyle=1" parent="gmR-Pt_a6dd02n7bJfiR-147" vertex="1">
                    <mxGeometry width="30" height="20" as="geometry"/>
                </mxCell>
                <mxCell id="gmR-Pt_a6dd02n7bJfiR-149" value="perm_id" style="shape=partialRectangle;connectable=0;fillColor=none;top=0;left=0;bottom=0;right=0;align=left;spacingLeft=6;overflow=hidden;" parent="gmR-Pt_a6dd02n7bJfiR-147" vertex="1">
                    <mxGeometry x="30" width="150" height="20" as="geometry"/>
                </mxCell>
                <mxCell id="gmR-Pt_a6dd02n7bJfiR-153" value="" style="shape=partialRectangle;collapsible=0;dropTarget=0;pointerEvents=0;fillColor=none;top=0;left=0;bottom=0;right=0;points=[[0,0.5],[1,0.5]];portConstraint=eastwest;" parent="gmR-Pt_a6dd02n7bJfiR-137" vertex="1">
                    <mxGeometry y="120" width="180" height="20" as="geometry"/>
                </mxCell>
                <mxCell id="gmR-Pt_a6dd02n7bJfiR-154" value="" style="shape=partialRectangle;connectable=0;fillColor=none;top=0;left=0;bottom=0;right=0;editable=1;overflow=hidden;" parent="gmR-Pt_a6dd02n7bJfiR-153" vertex="1">
                    <mxGeometry width="30" height="20" as="geometry"/>
                </mxCell>
                <mxCell id="gmR-Pt_a6dd02n7bJfiR-155" value="created_at" style="shape=partialRectangle;connectable=0;fillColor=none;top=0;left=0;bottom=0;right=0;align=left;spacingLeft=6;overflow=hidden;" parent="gmR-Pt_a6dd02n7bJfiR-153" vertex="1">
                    <mxGeometry x="30" width="150" height="20" as="geometry"/>
                </mxCell>
                <mxCell id="gmR-Pt_a6dd02n7bJfiR-156" value="" style="shape=partialRectangle;collapsible=0;dropTarget=0;pointerEvents=0;fillColor=none;top=0;left=0;bottom=0;right=0;points=[[0,0.5],[1,0.5]];portConstraint=eastwest;" parent="gmR-Pt_a6dd02n7bJfiR-137" vertex="1">
                    <mxGeometry y="140" width="180" height="20" as="geometry"/>
                </mxCell>
                <mxCell id="gmR-Pt_a6dd02n7bJfiR-157" value="" style="shape=partialRectangle;connectable=0;fillColor=none;top=0;left=0;bottom=0;right=0;editable=1;overflow=hidden;" parent="gmR-Pt_a6dd02n7bJfiR-156" vertex="1">
                    <mxGeometry width="30" height="20" as="geometry"/>
                </mxCell>
                <mxCell id="gmR-Pt_a6dd02n7bJfiR-158" value="updated_at" style="shape=partialRectangle;connectable=0;fillColor=none;top=0;left=0;bottom=0;right=0;align=left;spacingLeft=6;overflow=hidden;" parent="gmR-Pt_a6dd02n7bJfiR-156" vertex="1">
                    <mxGeometry x="30" width="150" height="20" as="geometry"/>
                </mxCell>
                <mxCell id="gmR-Pt_a6dd02n7bJfiR-150" value="" style="shape=partialRectangle;collapsible=0;dropTarget=0;pointerEvents=0;fillColor=none;top=0;left=0;bottom=0;right=0;points=[[0,0.5],[1,0.5]];portConstraint=eastwest;" parent="gmR-Pt_a6dd02n7bJfiR-137" vertex="1">
                    <mxGeometry y="160" width="180" height="20" as="geometry"/>
                </mxCell>
                <mxCell id="gmR-Pt_a6dd02n7bJfiR-151" value="" style="shape=partialRectangle;connectable=0;fillColor=none;top=0;left=0;bottom=0;right=0;editable=1;overflow=hidden;" parent="gmR-Pt_a6dd02n7bJfiR-150" vertex="1">
                    <mxGeometry width="30" height="20" as="geometry"/>
                </mxCell>
                <mxCell id="gmR-Pt_a6dd02n7bJfiR-152" value="deleted_at" style="shape=partialRectangle;connectable=0;fillColor=none;top=0;left=0;bottom=0;right=0;align=left;spacingLeft=6;overflow=hidden;" parent="gmR-Pt_a6dd02n7bJfiR-150" vertex="1">
                    <mxGeometry x="30" width="150" height="20" as="geometry"/>
                </mxCell>
                <mxCell id="gmR-Pt_a6dd02n7bJfiR-159" value="" style="edgeStyle=entityRelationEdgeStyle;fontSize=12;html=1;endArrow=ERoneToMany;" parent="1" source="gmR-Pt_a6dd02n7bJfiR-98" target="gmR-Pt_a6dd02n7bJfiR-141" edge="1">
                    <mxGeometry width="100" height="100" relative="1" as="geometry">
                        <mxPoint x="870" y="805" as="sourcePoint"/>
                        <mxPoint x="960" y="725" as="targetPoint"/>
                    </mxGeometry>
                </mxCell>
                <mxCell id="gmR-Pt_a6dd02n7bJfiR-160" value="" style="edgeStyle=entityRelationEdgeStyle;fontSize=12;html=1;endArrow=ERoneToMany;" parent="1" source="gmR-Pt_a6dd02n7bJfiR-147" target="gmR-Pt_a6dd02n7bJfiR-112" edge="1">
                    <mxGeometry width="100" height="100" relative="1" as="geometry">
                        <mxPoint x="1330" y="795" as="sourcePoint"/>
                        <mxPoint x="1430" y="695" as="targetPoint"/>
                    </mxGeometry>
                </mxCell>
                <mxCell id="gmR-Pt_a6dd02n7bJfiR-161" value="sliders" style="shape=table;startSize=30;container=1;collapsible=1;childLayout=tableLayout;fixedRows=1;rowLines=0;fontStyle=1;align=center;resizeLast=1;" parent="1" vertex="1">
                    <mxGeometry x="380" y="335" width="180" height="200" as="geometry"/>
                </mxCell>
                <mxCell id="gmR-Pt_a6dd02n7bJfiR-162" value="" style="shape=partialRectangle;collapsible=0;dropTarget=0;pointerEvents=0;fillColor=none;top=0;left=0;bottom=1;right=0;points=[[0,0.5],[1,0.5]];portConstraint=eastwest;" parent="gmR-Pt_a6dd02n7bJfiR-161" vertex="1">
                    <mxGeometry y="30" width="180" height="30" as="geometry"/>
                </mxCell>
                <mxCell id="gmR-Pt_a6dd02n7bJfiR-163" value="PK" style="shape=partialRectangle;connectable=0;fillColor=none;top=0;left=0;bottom=0;right=0;fontStyle=1;overflow=hidden;" parent="gmR-Pt_a6dd02n7bJfiR-162" vertex="1">
                    <mxGeometry width="30" height="30" as="geometry"/>
                </mxCell>
                <mxCell id="gmR-Pt_a6dd02n7bJfiR-164" value="id" style="shape=partialRectangle;connectable=0;fillColor=none;top=0;left=0;bottom=0;right=0;align=left;spacingLeft=6;fontStyle=5;overflow=hidden;" parent="gmR-Pt_a6dd02n7bJfiR-162" vertex="1">
                    <mxGeometry x="30" width="150" height="30" as="geometry"/>
                </mxCell>
                <mxCell id="gmR-Pt_a6dd02n7bJfiR-165" value="" style="shape=partialRectangle;collapsible=0;dropTarget=0;pointerEvents=0;fillColor=none;top=0;left=0;bottom=0;right=0;points=[[0,0.5],[1,0.5]];portConstraint=eastwest;" parent="gmR-Pt_a6dd02n7bJfiR-161" vertex="1">
                    <mxGeometry y="60" width="180" height="20" as="geometry"/>
                </mxCell>
                <mxCell id="gmR-Pt_a6dd02n7bJfiR-166" value="" style="shape=partialRectangle;connectable=0;fillColor=none;top=0;left=0;bottom=0;right=0;editable=1;overflow=hidden;" parent="gmR-Pt_a6dd02n7bJfiR-165" vertex="1">
                    <mxGeometry width="30" height="20" as="geometry"/>
                </mxCell>
                <mxCell id="gmR-Pt_a6dd02n7bJfiR-167" value="title" style="shape=partialRectangle;connectable=0;fillColor=none;top=0;left=0;bottom=0;right=0;align=left;spacingLeft=6;overflow=hidden;" parent="gmR-Pt_a6dd02n7bJfiR-165" vertex="1">
                    <mxGeometry x="30" width="150" height="20" as="geometry"/>
                </mxCell>
                <mxCell id="gmR-Pt_a6dd02n7bJfiR-168" value="" style="shape=partialRectangle;collapsible=0;dropTarget=0;pointerEvents=0;fillColor=none;top=0;left=0;bottom=0;right=0;points=[[0,0.5],[1,0.5]];portConstraint=eastwest;" parent="gmR-Pt_a6dd02n7bJfiR-161" vertex="1">
                    <mxGeometry y="80" width="180" height="20" as="geometry"/>
                </mxCell>
                <mxCell id="gmR-Pt_a6dd02n7bJfiR-169" value="" style="shape=partialRectangle;connectable=0;fillColor=none;top=0;left=0;bottom=0;right=0;editable=1;overflow=hidden;" parent="gmR-Pt_a6dd02n7bJfiR-168" vertex="1">
                    <mxGeometry width="30" height="20" as="geometry"/>
                </mxCell>
                <mxCell id="gmR-Pt_a6dd02n7bJfiR-170" value="image" style="shape=partialRectangle;connectable=0;fillColor=none;top=0;left=0;bottom=0;right=0;align=left;spacingLeft=6;overflow=hidden;" parent="gmR-Pt_a6dd02n7bJfiR-168" vertex="1">
                    <mxGeometry x="30" width="150" height="20" as="geometry"/>
                </mxCell>
                <mxCell id="gmR-Pt_a6dd02n7bJfiR-171" value="" style="shape=partialRectangle;collapsible=0;dropTarget=0;pointerEvents=0;fillColor=none;top=0;left=0;bottom=0;right=0;points=[[0,0.5],[1,0.5]];portConstraint=eastwest;" parent="gmR-Pt_a6dd02n7bJfiR-161" vertex="1">
                    <mxGeometry y="100" width="180" height="20" as="geometry"/>
                </mxCell>
                <mxCell id="gmR-Pt_a6dd02n7bJfiR-172" value="" style="shape=partialRectangle;connectable=0;fillColor=none;top=0;left=0;bottom=0;right=0;editable=1;overflow=hidden;" parent="gmR-Pt_a6dd02n7bJfiR-171" vertex="1">
                    <mxGeometry width="30" height="20" as="geometry"/>
                </mxCell>
                <mxCell id="gmR-Pt_a6dd02n7bJfiR-173" value="description" style="shape=partialRectangle;connectable=0;fillColor=none;top=0;left=0;bottom=0;right=0;align=left;spacingLeft=6;overflow=hidden;" parent="gmR-Pt_a6dd02n7bJfiR-171" vertex="1">
                    <mxGeometry x="30" width="150" height="20" as="geometry"/>
                </mxCell>
                <mxCell id="gmR-Pt_a6dd02n7bJfiR-174" value="" style="shape=partialRectangle;collapsible=0;dropTarget=0;pointerEvents=0;fillColor=none;top=0;left=0;bottom=0;right=0;points=[[0,0.5],[1,0.5]];portConstraint=eastwest;" parent="gmR-Pt_a6dd02n7bJfiR-161" vertex="1">
                    <mxGeometry y="120" width="180" height="20" as="geometry"/>
                </mxCell>
                <mxCell id="gmR-Pt_a6dd02n7bJfiR-175" value="FK" style="shape=partialRectangle;connectable=0;fillColor=none;top=0;left=0;bottom=0;right=0;editable=1;overflow=hidden;fontStyle=1" parent="gmR-Pt_a6dd02n7bJfiR-174" vertex="1">
                    <mxGeometry width="30" height="20" as="geometry"/>
                </mxCell>
                <mxCell id="gmR-Pt_a6dd02n7bJfiR-176" value="uploader" style="shape=partialRectangle;connectable=0;fillColor=none;top=0;left=0;bottom=0;right=0;align=left;spacingLeft=6;overflow=hidden;" parent="gmR-Pt_a6dd02n7bJfiR-174" vertex="1">
                    <mxGeometry x="30" width="150" height="20" as="geometry"/>
                </mxCell>
                <mxCell id="gmR-Pt_a6dd02n7bJfiR-177" value="" style="shape=partialRectangle;collapsible=0;dropTarget=0;pointerEvents=0;fillColor=none;top=0;left=0;bottom=0;right=0;points=[[0,0.5],[1,0.5]];portConstraint=eastwest;" parent="gmR-Pt_a6dd02n7bJfiR-161" vertex="1">
                    <mxGeometry y="140" width="180" height="20" as="geometry"/>
                </mxCell>
                <mxCell id="gmR-Pt_a6dd02n7bJfiR-178" value="" style="shape=partialRectangle;connectable=0;fillColor=none;top=0;left=0;bottom=0;right=0;editable=1;overflow=hidden;" parent="gmR-Pt_a6dd02n7bJfiR-177" vertex="1">
                    <mxGeometry width="30" height="20" as="geometry"/>
                </mxCell>
                <mxCell id="gmR-Pt_a6dd02n7bJfiR-179" value="created_at" style="shape=partialRectangle;connectable=0;fillColor=none;top=0;left=0;bottom=0;right=0;align=left;spacingLeft=6;overflow=hidden;" parent="gmR-Pt_a6dd02n7bJfiR-177" vertex="1">
                    <mxGeometry x="30" width="150" height="20" as="geometry"/>
                </mxCell>
                <mxCell id="gmR-Pt_a6dd02n7bJfiR-187" value="" style="shape=partialRectangle;collapsible=0;dropTarget=0;pointerEvents=0;fillColor=none;top=0;left=0;bottom=0;right=0;points=[[0,0.5],[1,0.5]];portConstraint=eastwest;" parent="gmR-Pt_a6dd02n7bJfiR-161" vertex="1">
                    <mxGeometry y="160" width="180" height="20" as="geometry"/>
                </mxCell>
                <mxCell id="gmR-Pt_a6dd02n7bJfiR-188" value="" style="shape=partialRectangle;connectable=0;fillColor=none;top=0;left=0;bottom=0;right=0;editable=1;overflow=hidden;" parent="gmR-Pt_a6dd02n7bJfiR-187" vertex="1">
                    <mxGeometry width="30" height="20" as="geometry"/>
                </mxCell>
                <mxCell id="gmR-Pt_a6dd02n7bJfiR-189" value="updated_at" style="shape=partialRectangle;connectable=0;fillColor=none;top=0;left=0;bottom=0;right=0;align=left;spacingLeft=6;overflow=hidden;" parent="gmR-Pt_a6dd02n7bJfiR-187" vertex="1">
                    <mxGeometry x="30" width="150" height="20" as="geometry"/>
                </mxCell>
                <mxCell id="gmR-Pt_a6dd02n7bJfiR-180" value="" style="shape=partialRectangle;collapsible=0;dropTarget=0;pointerEvents=0;fillColor=none;top=0;left=0;bottom=0;right=0;points=[[0,0.5],[1,0.5]];portConstraint=eastwest;" parent="gmR-Pt_a6dd02n7bJfiR-161" vertex="1">
                    <mxGeometry y="180" width="180" height="20" as="geometry"/>
                </mxCell>
                <mxCell id="gmR-Pt_a6dd02n7bJfiR-181" value="" style="shape=partialRectangle;connectable=0;fillColor=none;top=0;left=0;bottom=0;right=0;editable=1;overflow=hidden;" parent="gmR-Pt_a6dd02n7bJfiR-180" vertex="1">
                    <mxGeometry width="30" height="20" as="geometry"/>
                </mxCell>
                <mxCell id="gmR-Pt_a6dd02n7bJfiR-182" value="deleted_at" style="shape=partialRectangle;connectable=0;fillColor=none;top=0;left=0;bottom=0;right=0;align=left;spacingLeft=6;overflow=hidden;" parent="gmR-Pt_a6dd02n7bJfiR-180" vertex="1">
                    <mxGeometry x="30" width="150" height="20" as="geometry"/>
                </mxCell>
                <mxCell id="gmR-Pt_a6dd02n7bJfiR-191" value="" style="edgeStyle=entityRelationEdgeStyle;fontSize=12;html=1;endArrow=ERoneToMany;" parent="1" source="gmR-Pt_a6dd02n7bJfiR-174" target="gmR-Pt_a6dd02n7bJfiR-15" edge="1">
                    <mxGeometry width="100" height="100" relative="1" as="geometry">
                        <mxPoint x="500" y="515" as="sourcePoint"/>
                        <mxPoint x="600" y="415" as="targetPoint"/>
                    </mxGeometry>
                </mxCell>
                <mxCell id="gmR-Pt_a6dd02n7bJfiR-217" value="announcements" style="shape=table;startSize=30;container=1;collapsible=1;childLayout=tableLayout;fixedRows=1;rowLines=0;fontStyle=1;align=center;resizeLast=1;" parent="1" vertex="1">
                    <mxGeometry x="380" y="560" width="180" height="220" as="geometry">
                        <mxRectangle x="400" y="615" width="120" height="30" as="alternateBounds"/>
                    </mxGeometry>
                </mxCell>
                <mxCell id="gmR-Pt_a6dd02n7bJfiR-218" value="" style="shape=partialRectangle;collapsible=0;dropTarget=0;pointerEvents=0;fillColor=none;top=0;left=0;bottom=1;right=0;points=[[0,0.5],[1,0.5]];portConstraint=eastwest;" parent="gmR-Pt_a6dd02n7bJfiR-217" vertex="1">
                    <mxGeometry y="30" width="180" height="30" as="geometry"/>
                </mxCell>
                <mxCell id="gmR-Pt_a6dd02n7bJfiR-219" value="PK" style="shape=partialRectangle;connectable=0;fillColor=none;top=0;left=0;bottom=0;right=0;fontStyle=1;overflow=hidden;" parent="gmR-Pt_a6dd02n7bJfiR-218" vertex="1">
                    <mxGeometry width="30" height="30" as="geometry"/>
                </mxCell>
                <mxCell id="gmR-Pt_a6dd02n7bJfiR-220" value="id" style="shape=partialRectangle;connectable=0;fillColor=none;top=0;left=0;bottom=0;right=0;align=left;spacingLeft=6;fontStyle=5;overflow=hidden;" parent="gmR-Pt_a6dd02n7bJfiR-218" vertex="1">
                    <mxGeometry x="30" width="150" height="30" as="geometry"/>
                </mxCell>
                <mxCell id="gmR-Pt_a6dd02n7bJfiR-221" value="" style="shape=partialRectangle;collapsible=0;dropTarget=0;pointerEvents=0;fillColor=none;top=0;left=0;bottom=0;right=0;points=[[0,0.5],[1,0.5]];portConstraint=eastwest;" parent="gmR-Pt_a6dd02n7bJfiR-217" vertex="1">
                    <mxGeometry y="60" width="180" height="20" as="geometry"/>
                </mxCell>
                <mxCell id="gmR-Pt_a6dd02n7bJfiR-222" value="" style="shape=partialRectangle;connectable=0;fillColor=none;top=0;left=0;bottom=0;right=0;editable=1;overflow=hidden;" parent="gmR-Pt_a6dd02n7bJfiR-221" vertex="1">
                    <mxGeometry width="30" height="20" as="geometry"/>
                </mxCell>
                <mxCell id="gmR-Pt_a6dd02n7bJfiR-223" value="title" style="shape=partialRectangle;connectable=0;fillColor=none;top=0;left=0;bottom=0;right=0;align=left;spacingLeft=6;overflow=hidden;" parent="gmR-Pt_a6dd02n7bJfiR-221" vertex="1">
                    <mxGeometry x="30" width="150" height="20" as="geometry"/>
                </mxCell>
                <mxCell id="gmR-Pt_a6dd02n7bJfiR-224" value="" style="shape=partialRectangle;collapsible=0;dropTarget=0;pointerEvents=0;fillColor=none;top=0;left=0;bottom=0;right=0;points=[[0,0.5],[1,0.5]];portConstraint=eastwest;" parent="gmR-Pt_a6dd02n7bJfiR-217" vertex="1">
                    <mxGeometry y="80" width="180" height="20" as="geometry"/>
                </mxCell>
                <mxCell id="gmR-Pt_a6dd02n7bJfiR-225" value="" style="shape=partialRectangle;connectable=0;fillColor=none;top=0;left=0;bottom=0;right=0;editable=1;overflow=hidden;" parent="gmR-Pt_a6dd02n7bJfiR-224" vertex="1">
                    <mxGeometry width="30" height="20" as="geometry"/>
                </mxCell>
                <mxCell id="gmR-Pt_a6dd02n7bJfiR-226" value="image" style="shape=partialRectangle;connectable=0;fillColor=none;top=0;left=0;bottom=0;right=0;align=left;spacingLeft=6;overflow=hidden;" parent="gmR-Pt_a6dd02n7bJfiR-224" vertex="1">
                    <mxGeometry x="30" width="150" height="20" as="geometry"/>
                </mxCell>
                <mxCell id="gmR-Pt_a6dd02n7bJfiR-227" value="" style="shape=partialRectangle;collapsible=0;dropTarget=0;pointerEvents=0;fillColor=none;top=0;left=0;bottom=0;right=0;points=[[0,0.5],[1,0.5]];portConstraint=eastwest;" parent="gmR-Pt_a6dd02n7bJfiR-217" vertex="1">
                    <mxGeometry y="100" width="180" height="20" as="geometry"/>
                </mxCell>
                <mxCell id="gmR-Pt_a6dd02n7bJfiR-228" value="" style="shape=partialRectangle;connectable=0;fillColor=none;top=0;left=0;bottom=0;right=0;editable=1;overflow=hidden;" parent="gmR-Pt_a6dd02n7bJfiR-227" vertex="1">
                    <mxGeometry width="30" height="20" as="geometry"/>
                </mxCell>
                <mxCell id="gmR-Pt_a6dd02n7bJfiR-229" value="description" style="shape=partialRectangle;connectable=0;fillColor=none;top=0;left=0;bottom=0;right=0;align=left;spacingLeft=6;overflow=hidden;" parent="gmR-Pt_a6dd02n7bJfiR-227" vertex="1">
                    <mxGeometry x="30" width="150" height="20" as="geometry"/>
                </mxCell>
                <mxCell id="gmR-Pt_a6dd02n7bJfiR-292" value="" style="shape=partialRectangle;collapsible=0;dropTarget=0;pointerEvents=0;fillColor=none;top=0;left=0;bottom=0;right=0;points=[[0,0.5],[1,0.5]];portConstraint=eastwest;" parent="gmR-Pt_a6dd02n7bJfiR-217" vertex="1">
                    <mxGeometry y="120" width="180" height="20" as="geometry"/>
                </mxCell>
                <mxCell id="gmR-Pt_a6dd02n7bJfiR-293" value="FK" style="shape=partialRectangle;connectable=0;fillColor=none;top=0;left=0;bottom=0;right=0;editable=1;overflow=hidden;fontStyle=1" parent="gmR-Pt_a6dd02n7bJfiR-292" vertex="1">
                    <mxGeometry width="30" height="20" as="geometry"/>
                </mxCell>
                <mxCell id="gmR-Pt_a6dd02n7bJfiR-294" value="uploader" style="shape=partialRectangle;connectable=0;fillColor=none;top=0;left=0;bottom=0;right=0;align=left;spacingLeft=6;overflow=hidden;" parent="gmR-Pt_a6dd02n7bJfiR-292" vertex="1">
                    <mxGeometry x="30" width="150" height="20" as="geometry"/>
                </mxCell>
                <mxCell id="gmR-Pt_a6dd02n7bJfiR-230" value="" style="shape=partialRectangle;collapsible=0;dropTarget=0;pointerEvents=0;fillColor=none;top=0;left=0;bottom=0;right=0;points=[[0,0.5],[1,0.5]];portConstraint=eastwest;" parent="gmR-Pt_a6dd02n7bJfiR-217" vertex="1">
                    <mxGeometry y="140" width="180" height="20" as="geometry"/>
                </mxCell>
                <mxCell id="gmR-Pt_a6dd02n7bJfiR-231" value="" style="shape=partialRectangle;connectable=0;fillColor=none;top=0;left=0;bottom=0;right=0;editable=1;overflow=hidden;fontStyle=1" parent="gmR-Pt_a6dd02n7bJfiR-230" vertex="1">
                    <mxGeometry width="30" height="20" as="geometry"/>
                </mxCell>
                <mxCell id="gmR-Pt_a6dd02n7bJfiR-232" value="link" style="shape=partialRectangle;connectable=0;fillColor=none;top=0;left=0;bottom=0;right=0;align=left;spacingLeft=6;overflow=hidden;" parent="gmR-Pt_a6dd02n7bJfiR-230" vertex="1">
                    <mxGeometry x="30" width="150" height="20" as="geometry"/>
                </mxCell>
                <mxCell id="gmR-Pt_a6dd02n7bJfiR-233" value="" style="shape=partialRectangle;collapsible=0;dropTarget=0;pointerEvents=0;fillColor=none;top=0;left=0;bottom=0;right=0;points=[[0,0.5],[1,0.5]];portConstraint=eastwest;" parent="gmR-Pt_a6dd02n7bJfiR-217" vertex="1">
                    <mxGeometry y="160" width="180" height="20" as="geometry"/>
                </mxCell>
                <mxCell id="gmR-Pt_a6dd02n7bJfiR-234" value="" style="shape=partialRectangle;connectable=0;fillColor=none;top=0;left=0;bottom=0;right=0;editable=1;overflow=hidden;" parent="gmR-Pt_a6dd02n7bJfiR-233" vertex="1">
                    <mxGeometry width="30" height="20" as="geometry"/>
                </mxCell>
                <mxCell id="gmR-Pt_a6dd02n7bJfiR-235" value="created_at" style="shape=partialRectangle;connectable=0;fillColor=none;top=0;left=0;bottom=0;right=0;align=left;spacingLeft=6;overflow=hidden;" parent="gmR-Pt_a6dd02n7bJfiR-233" vertex="1">
                    <mxGeometry x="30" width="150" height="20" as="geometry"/>
                </mxCell>
                <mxCell id="gmR-Pt_a6dd02n7bJfiR-236" value="" style="shape=partialRectangle;collapsible=0;dropTarget=0;pointerEvents=0;fillColor=none;top=0;left=0;bottom=0;right=0;points=[[0,0.5],[1,0.5]];portConstraint=eastwest;" parent="gmR-Pt_a6dd02n7bJfiR-217" vertex="1">
                    <mxGeometry y="180" width="180" height="20" as="geometry"/>
                </mxCell>
                <mxCell id="gmR-Pt_a6dd02n7bJfiR-237" value="" style="shape=partialRectangle;connectable=0;fillColor=none;top=0;left=0;bottom=0;right=0;editable=1;overflow=hidden;" parent="gmR-Pt_a6dd02n7bJfiR-236" vertex="1">
                    <mxGeometry width="30" height="20" as="geometry"/>
                </mxCell>
                <mxCell id="gmR-Pt_a6dd02n7bJfiR-238" value="updated_at" style="shape=partialRectangle;connectable=0;fillColor=none;top=0;left=0;bottom=0;right=0;align=left;spacingLeft=6;overflow=hidden;" parent="gmR-Pt_a6dd02n7bJfiR-236" vertex="1">
                    <mxGeometry x="30" width="150" height="20" as="geometry"/>
                </mxCell>
                <mxCell id="gmR-Pt_a6dd02n7bJfiR-239" value="" style="shape=partialRectangle;collapsible=0;dropTarget=0;pointerEvents=0;fillColor=none;top=0;left=0;bottom=0;right=0;points=[[0,0.5],[1,0.5]];portConstraint=eastwest;" parent="gmR-Pt_a6dd02n7bJfiR-217" vertex="1">
                    <mxGeometry y="200" width="180" height="20" as="geometry"/>
                </mxCell>
                <mxCell id="gmR-Pt_a6dd02n7bJfiR-240" value="" style="shape=partialRectangle;connectable=0;fillColor=none;top=0;left=0;bottom=0;right=0;editable=1;overflow=hidden;" parent="gmR-Pt_a6dd02n7bJfiR-239" vertex="1">
                    <mxGeometry width="30" height="20" as="geometry"/>
                </mxCell>
                <mxCell id="gmR-Pt_a6dd02n7bJfiR-241" value="deleted_at" style="shape=partialRectangle;connectable=0;fillColor=none;top=0;left=0;bottom=0;right=0;align=left;spacingLeft=6;overflow=hidden;" parent="gmR-Pt_a6dd02n7bJfiR-239" vertex="1">
                    <mxGeometry x="30" width="150" height="20" as="geometry"/>
                </mxCell>
                <mxCell id="gmR-Pt_a6dd02n7bJfiR-295" value="" style="edgeStyle=entityRelationEdgeStyle;fontSize=12;html=1;endArrow=ERoneToMany;" parent="1" source="gmR-Pt_a6dd02n7bJfiR-292" target="gmR-Pt_a6dd02n7bJfiR-41" edge="1">
                    <mxGeometry width="100" height="100" relative="1" as="geometry">
                        <mxPoint x="570" y="690" as="sourcePoint"/>
                        <mxPoint x="670" y="590" as="targetPoint"/>
                    </mxGeometry>
                </mxCell>
                <mxCell id="gmR-Pt_a6dd02n7bJfiR-296" value="file_sharing" style="shape=table;startSize=30;container=1;collapsible=1;childLayout=tableLayout;fixedRows=1;rowLines=0;fontStyle=1;align=center;resizeLast=1;" parent="1" vertex="1">
                    <mxGeometry x="1090" y="235" width="180" height="260" as="geometry"/>
                </mxCell>
                <mxCell id="gmR-Pt_a6dd02n7bJfiR-297" value="" style="shape=partialRectangle;collapsible=0;dropTarget=0;pointerEvents=0;fillColor=none;top=0;left=0;bottom=1;right=0;points=[[0,0.5],[1,0.5]];portConstraint=eastwest;" parent="gmR-Pt_a6dd02n7bJfiR-296" vertex="1">
                    <mxGeometry y="30" width="180" height="30" as="geometry"/>
                </mxCell>
                <mxCell id="gmR-Pt_a6dd02n7bJfiR-298" value="PK" style="shape=partialRectangle;connectable=0;fillColor=none;top=0;left=0;bottom=0;right=0;fontStyle=1;overflow=hidden;" parent="gmR-Pt_a6dd02n7bJfiR-297" vertex="1">
                    <mxGeometry width="30" height="30" as="geometry"/>
                </mxCell>
                <mxCell id="gmR-Pt_a6dd02n7bJfiR-299" value="id" style="shape=partialRectangle;connectable=0;fillColor=none;top=0;left=0;bottom=0;right=0;align=left;spacingLeft=6;fontStyle=5;overflow=hidden;" parent="gmR-Pt_a6dd02n7bJfiR-297" vertex="1">
                    <mxGeometry x="30" width="150" height="30" as="geometry"/>
                </mxCell>
                <mxCell id="gmR-Pt_a6dd02n7bJfiR-300" value="" style="shape=partialRectangle;collapsible=0;dropTarget=0;pointerEvents=0;fillColor=none;top=0;left=0;bottom=0;right=0;points=[[0,0.5],[1,0.5]];portConstraint=eastwest;" parent="gmR-Pt_a6dd02n7bJfiR-296" vertex="1">
                    <mxGeometry y="60" width="180" height="20" as="geometry"/>
                </mxCell>
                <mxCell id="gmR-Pt_a6dd02n7bJfiR-301" value="" style="shape=partialRectangle;connectable=0;fillColor=none;top=0;left=0;bottom=0;right=0;editable=1;overflow=hidden;" parent="gmR-Pt_a6dd02n7bJfiR-300" vertex="1">
                    <mxGeometry width="30" height="20" as="geometry"/>
                </mxCell>
                <mxCell id="gmR-Pt_a6dd02n7bJfiR-302" value="file_name" style="shape=partialRectangle;connectable=0;fillColor=none;top=0;left=0;bottom=0;right=0;align=left;spacingLeft=6;overflow=hidden;" parent="gmR-Pt_a6dd02n7bJfiR-300" vertex="1">
                    <mxGeometry x="30" width="150" height="20" as="geometry"/>
                </mxCell>
                <mxCell id="gmR-Pt_a6dd02n7bJfiR-303" value="" style="shape=partialRectangle;collapsible=0;dropTarget=0;pointerEvents=0;fillColor=none;top=0;left=0;bottom=0;right=0;points=[[0,0.5],[1,0.5]];portConstraint=eastwest;" parent="gmR-Pt_a6dd02n7bJfiR-296" vertex="1">
                    <mxGeometry y="80" width="180" height="20" as="geometry"/>
                </mxCell>
                <mxCell id="gmR-Pt_a6dd02n7bJfiR-304" value="" style="shape=partialRectangle;connectable=0;fillColor=none;top=0;left=0;bottom=0;right=0;editable=1;overflow=hidden;" parent="gmR-Pt_a6dd02n7bJfiR-303" vertex="1">
                    <mxGeometry width="30" height="20" as="geometry"/>
                </mxCell>
                <mxCell id="gmR-Pt_a6dd02n7bJfiR-305" value="size" style="shape=partialRectangle;connectable=0;fillColor=none;top=0;left=0;bottom=0;right=0;align=left;spacingLeft=6;overflow=hidden;" parent="gmR-Pt_a6dd02n7bJfiR-303" vertex="1">
                    <mxGeometry x="30" width="150" height="20" as="geometry"/>
                </mxCell>
                <mxCell id="gmR-Pt_a6dd02n7bJfiR-306" value="" style="shape=partialRectangle;collapsible=0;dropTarget=0;pointerEvents=0;fillColor=none;top=0;left=0;bottom=0;right=0;points=[[0,0.5],[1,0.5]];portConstraint=eastwest;" parent="gmR-Pt_a6dd02n7bJfiR-296" vertex="1">
                    <mxGeometry y="100" width="180" height="20" as="geometry"/>
                </mxCell>
                <mxCell id="gmR-Pt_a6dd02n7bJfiR-307" value="" style="shape=partialRectangle;connectable=0;fillColor=none;top=0;left=0;bottom=0;right=0;editable=1;overflow=hidden;" parent="gmR-Pt_a6dd02n7bJfiR-306" vertex="1">
                    <mxGeometry width="30" height="20" as="geometry"/>
                </mxCell>
                <mxCell id="gmR-Pt_a6dd02n7bJfiR-308" value="extension" style="shape=partialRectangle;connectable=0;fillColor=none;top=0;left=0;bottom=0;right=0;align=left;spacingLeft=6;overflow=hidden;" parent="gmR-Pt_a6dd02n7bJfiR-306" vertex="1">
                    <mxGeometry x="30" width="150" height="20" as="geometry"/>
                </mxCell>
                <mxCell id="gmR-Pt_a6dd02n7bJfiR-309" value="" style="shape=partialRectangle;collapsible=0;dropTarget=0;pointerEvents=0;fillColor=none;top=0;left=0;bottom=0;right=0;points=[[0,0.5],[1,0.5]];portConstraint=eastwest;" parent="gmR-Pt_a6dd02n7bJfiR-296" vertex="1">
                    <mxGeometry y="120" width="180" height="20" as="geometry"/>
                </mxCell>
                <mxCell id="gmR-Pt_a6dd02n7bJfiR-310" value="FK" style="shape=partialRectangle;connectable=0;fillColor=none;top=0;left=0;bottom=0;right=0;editable=1;overflow=hidden;fontStyle=1" parent="gmR-Pt_a6dd02n7bJfiR-309" vertex="1">
                    <mxGeometry width="30" height="20" as="geometry"/>
                </mxCell>
                <mxCell id="gmR-Pt_a6dd02n7bJfiR-311" value="uploader" style="shape=partialRectangle;connectable=0;fillColor=none;top=0;left=0;bottom=0;right=0;align=left;spacingLeft=6;overflow=hidden;" parent="gmR-Pt_a6dd02n7bJfiR-309" vertex="1">
                    <mxGeometry x="30" width="150" height="20" as="geometry"/>
                </mxCell>
                <mxCell id="gmR-Pt_a6dd02n7bJfiR-312" value="" style="shape=partialRectangle;collapsible=0;dropTarget=0;pointerEvents=0;fillColor=none;top=0;left=0;bottom=0;right=0;points=[[0,0.5],[1,0.5]];portConstraint=eastwest;" parent="gmR-Pt_a6dd02n7bJfiR-296" vertex="1">
                    <mxGeometry y="140" width="180" height="20" as="geometry"/>
                </mxCell>
                <mxCell id="gmR-Pt_a6dd02n7bJfiR-313" value="" style="shape=partialRectangle;connectable=0;fillColor=none;top=0;left=0;bottom=0;right=0;editable=1;overflow=hidden;" parent="gmR-Pt_a6dd02n7bJfiR-312" vertex="1">
                    <mxGeometry width="30" height="20" as="geometry"/>
                </mxCell>
                <mxCell id="gmR-Pt_a6dd02n7bJfiR-314" value="category" style="shape=partialRectangle;connectable=0;fillColor=none;top=0;left=0;bottom=0;right=0;align=left;spacingLeft=6;overflow=hidden;" parent="gmR-Pt_a6dd02n7bJfiR-312" vertex="1">
                    <mxGeometry x="30" width="150" height="20" as="geometry"/>
                </mxCell>
                <mxCell id="2" value="" style="shape=partialRectangle;collapsible=0;dropTarget=0;pointerEvents=0;fillColor=none;top=0;left=0;bottom=0;right=0;points=[[0,0.5],[1,0.5]];portConstraint=eastwest;" vertex="1" parent="gmR-Pt_a6dd02n7bJfiR-296">
                    <mxGeometry y="160" width="180" height="20" as="geometry"/>
                </mxCell>
                <mxCell id="3" value="" style="shape=partialRectangle;connectable=0;fillColor=none;top=0;left=0;bottom=0;right=0;editable=1;overflow=hidden;" vertex="1" parent="2">
                    <mxGeometry width="30" height="20" as="geometry"/>
                </mxCell>
                <mxCell id="4" value="downloads" style="shape=partialRectangle;connectable=0;fillColor=none;top=0;left=0;bottom=0;right=0;align=left;spacingLeft=6;overflow=hidden;" vertex="1" parent="2">
                    <mxGeometry x="30" width="150" height="20" as="geometry"/>
                </mxCell>
                <mxCell id="5LnNcQllCpH-_-lJVJDu-83" value="" style="shape=partialRectangle;collapsible=0;dropTarget=0;pointerEvents=0;fillColor=none;top=0;left=0;bottom=0;right=0;points=[[0,0.5],[1,0.5]];portConstraint=eastwest;" parent="gmR-Pt_a6dd02n7bJfiR-296" vertex="1">
                    <mxGeometry y="180" width="180" height="20" as="geometry"/>
                </mxCell>
                <mxCell id="5LnNcQllCpH-_-lJVJDu-84" value="" style="shape=partialRectangle;connectable=0;fillColor=none;top=0;left=0;bottom=0;right=0;editable=1;overflow=hidden;" parent="5LnNcQllCpH-_-lJVJDu-83" vertex="1">
                    <mxGeometry width="30" height="20" as="geometry"/>
                </mxCell>
                <mxCell id="5LnNcQllCpH-_-lJVJDu-85" value="visibility" style="shape=partialRectangle;connectable=0;fillColor=none;top=0;left=0;bottom=0;right=0;align=left;spacingLeft=6;overflow=hidden;" parent="5LnNcQllCpH-_-lJVJDu-83" vertex="1">
                    <mxGeometry x="30" width="150" height="20" as="geometry"/>
                </mxCell>
                <mxCell id="5LnNcQllCpH-_-lJVJDu-80" value="" style="shape=partialRectangle;collapsible=0;dropTarget=0;pointerEvents=0;fillColor=none;top=0;left=0;bottom=0;right=0;points=[[0,0.5],[1,0.5]];portConstraint=eastwest;" parent="gmR-Pt_a6dd02n7bJfiR-296" vertex="1">
                    <mxGeometry y="200" width="180" height="20" as="geometry"/>
                </mxCell>
                <mxCell id="5LnNcQllCpH-_-lJVJDu-81" value="" style="shape=partialRectangle;connectable=0;fillColor=none;top=0;left=0;bottom=0;right=0;editable=1;overflow=hidden;" parent="5LnNcQllCpH-_-lJVJDu-80" vertex="1">
                    <mxGeometry width="30" height="20" as="geometry"/>
                </mxCell>
                <mxCell id="5LnNcQllCpH-_-lJVJDu-82" value="uploaded_at" style="shape=partialRectangle;connectable=0;fillColor=none;top=0;left=0;bottom=0;right=0;align=left;spacingLeft=6;overflow=hidden;" parent="5LnNcQllCpH-_-lJVJDu-80" vertex="1">
                    <mxGeometry x="30" width="150" height="20" as="geometry"/>
                </mxCell>
                <mxCell id="gmR-Pt_a6dd02n7bJfiR-315" value="" style="shape=partialRectangle;collapsible=0;dropTarget=0;pointerEvents=0;fillColor=none;top=0;left=0;bottom=0;right=0;points=[[0,0.5],[1,0.5]];portConstraint=eastwest;" parent="gmR-Pt_a6dd02n7bJfiR-296" vertex="1">
                    <mxGeometry y="220" width="180" height="20" as="geometry"/>
                </mxCell>
                <mxCell id="gmR-Pt_a6dd02n7bJfiR-316" value="" style="shape=partialRectangle;connectable=0;fillColor=none;top=0;left=0;bottom=0;right=0;editable=1;overflow=hidden;" parent="gmR-Pt_a6dd02n7bJfiR-315" vertex="1">
                    <mxGeometry width="30" height="20" as="geometry"/>
                </mxCell>
                <mxCell id="gmR-Pt_a6dd02n7bJfiR-317" value="updated_at" style="shape=partialRectangle;connectable=0;fillColor=none;top=0;left=0;bottom=0;right=0;align=left;spacingLeft=6;overflow=hidden;" parent="gmR-Pt_a6dd02n7bJfiR-315" vertex="1">
                    <mxGeometry x="30" width="150" height="20" as="geometry"/>
                </mxCell>
                <mxCell id="gmR-Pt_a6dd02n7bJfiR-318" value="" style="shape=partialRectangle;collapsible=0;dropTarget=0;pointerEvents=0;fillColor=none;top=0;left=0;bottom=0;right=0;points=[[0,0.5],[1,0.5]];portConstraint=eastwest;" parent="gmR-Pt_a6dd02n7bJfiR-296" vertex="1">
                    <mxGeometry y="240" width="180" height="20" as="geometry"/>
                </mxCell>
                <mxCell id="gmR-Pt_a6dd02n7bJfiR-319" value="" style="shape=partialRectangle;connectable=0;fillColor=none;top=0;left=0;bottom=0;right=0;editable=1;overflow=hidden;" parent="gmR-Pt_a6dd02n7bJfiR-318" vertex="1">
                    <mxGeometry width="30" height="20" as="geometry"/>
                </mxCell>
                <mxCell id="gmR-Pt_a6dd02n7bJfiR-320" value="deleted_at" style="shape=partialRectangle;connectable=0;fillColor=none;top=0;left=0;bottom=0;right=0;align=left;spacingLeft=6;overflow=hidden;" parent="gmR-Pt_a6dd02n7bJfiR-318" vertex="1">
                    <mxGeometry x="30" width="150" height="20" as="geometry"/>
                </mxCell>
                <mxCell id="gmR-Pt_a6dd02n7bJfiR-321" value="" style="edgeStyle=entityRelationEdgeStyle;fontSize=12;html=1;endArrow=ERoneToMany;" parent="1" source="gmR-Pt_a6dd02n7bJfiR-41" target="gmR-Pt_a6dd02n7bJfiR-318" edge="1">
                    <mxGeometry width="100" height="100" relative="1" as="geometry">
                        <mxPoint x="900" y="310" as="sourcePoint"/>
                        <mxPoint x="1000" y="210" as="targetPoint"/>
                    </mxGeometry>
                </mxCell>
                <mxCell id="gmR-Pt_a6dd02n7bJfiR-335" value="elections" style="shape=table;startSize=30;container=1;collapsible=1;childLayout=tableLayout;fixedRows=1;rowLines=0;fontStyle=1;align=center;resizeLast=1;" parent="1" vertex="1">
                    <mxGeometry x="610" y="1020" width="180" height="200" as="geometry"/>
                </mxCell>
                <mxCell id="gmR-Pt_a6dd02n7bJfiR-336" value="" style="shape=partialRectangle;collapsible=0;dropTarget=0;pointerEvents=0;fillColor=none;top=0;left=0;bottom=1;right=0;points=[[0,0.5],[1,0.5]];portConstraint=eastwest;" parent="gmR-Pt_a6dd02n7bJfiR-335" vertex="1">
                    <mxGeometry y="30" width="180" height="30" as="geometry"/>
                </mxCell>
                <mxCell id="gmR-Pt_a6dd02n7bJfiR-337" value="PK" style="shape=partialRectangle;connectable=0;fillColor=none;top=0;left=0;bottom=0;right=0;fontStyle=1;overflow=hidden;" parent="gmR-Pt_a6dd02n7bJfiR-336" vertex="1">
                    <mxGeometry width="30" height="30" as="geometry"/>
                </mxCell>
                <mxCell id="gmR-Pt_a6dd02n7bJfiR-338" value="id" style="shape=partialRectangle;connectable=0;fillColor=none;top=0;left=0;bottom=0;right=0;align=left;spacingLeft=6;fontStyle=5;overflow=hidden;" parent="gmR-Pt_a6dd02n7bJfiR-336" vertex="1">
                    <mxGeometry x="30" width="150" height="30" as="geometry"/>
                </mxCell>
                <mxCell id="gmR-Pt_a6dd02n7bJfiR-339" value="" style="shape=partialRectangle;collapsible=0;dropTarget=0;pointerEvents=0;fillColor=none;top=0;left=0;bottom=0;right=0;points=[[0,0.5],[1,0.5]];portConstraint=eastwest;" parent="gmR-Pt_a6dd02n7bJfiR-335" vertex="1">
                    <mxGeometry y="60" width="180" height="20" as="geometry"/>
                </mxCell>
                <mxCell id="gmR-Pt_a6dd02n7bJfiR-340" value="" style="shape=partialRectangle;connectable=0;fillColor=none;top=0;left=0;bottom=0;right=0;editable=1;overflow=hidden;fontStyle=1" parent="gmR-Pt_a6dd02n7bJfiR-339" vertex="1">
                    <mxGeometry width="30" height="20" as="geometry"/>
                </mxCell>
                <mxCell id="gmR-Pt_a6dd02n7bJfiR-341" value="title" style="shape=partialRectangle;connectable=0;fillColor=none;top=0;left=0;bottom=0;right=0;align=left;spacingLeft=6;overflow=hidden;" parent="gmR-Pt_a6dd02n7bJfiR-339" vertex="1">
                    <mxGeometry x="30" width="150" height="20" as="geometry"/>
                </mxCell>
                <mxCell id="gmR-Pt_a6dd02n7bJfiR-342" value="" style="shape=partialRectangle;collapsible=0;dropTarget=0;pointerEvents=0;fillColor=none;top=0;left=0;bottom=0;right=0;points=[[0,0.5],[1,0.5]];portConstraint=eastwest;" parent="gmR-Pt_a6dd02n7bJfiR-335" vertex="1">
                    <mxGeometry y="80" width="180" height="20" as="geometry"/>
                </mxCell>
                <mxCell id="gmR-Pt_a6dd02n7bJfiR-343" value="" style="shape=partialRectangle;connectable=0;fillColor=none;top=0;left=0;bottom=0;right=0;editable=1;overflow=hidden;" parent="gmR-Pt_a6dd02n7bJfiR-342" vertex="1">
                    <mxGeometry width="30" height="20" as="geometry"/>
                </mxCell>
                <mxCell id="gmR-Pt_a6dd02n7bJfiR-344" value="vote_start" style="shape=partialRectangle;connectable=0;fillColor=none;top=0;left=0;bottom=0;right=0;align=left;spacingLeft=6;overflow=hidden;" parent="gmR-Pt_a6dd02n7bJfiR-342" vertex="1">
                    <mxGeometry x="30" width="150" height="20" as="geometry"/>
                </mxCell>
                <mxCell id="gmR-Pt_a6dd02n7bJfiR-345" value="" style="shape=partialRectangle;collapsible=0;dropTarget=0;pointerEvents=0;fillColor=none;top=0;left=0;bottom=0;right=0;points=[[0,0.5],[1,0.5]];portConstraint=eastwest;" parent="gmR-Pt_a6dd02n7bJfiR-335" vertex="1">
                    <mxGeometry y="100" width="180" height="20" as="geometry"/>
                </mxCell>
                <mxCell id="gmR-Pt_a6dd02n7bJfiR-346" value="" style="shape=partialRectangle;connectable=0;fillColor=none;top=0;left=0;bottom=0;right=0;editable=1;overflow=hidden;fontStyle=1" parent="gmR-Pt_a6dd02n7bJfiR-345" vertex="1">
                    <mxGeometry width="30" height="20" as="geometry"/>
                </mxCell>
                <mxCell id="gmR-Pt_a6dd02n7bJfiR-347" value="vote_end" style="shape=partialRectangle;connectable=0;fillColor=none;top=0;left=0;bottom=0;right=0;align=left;spacingLeft=6;overflow=hidden;" parent="gmR-Pt_a6dd02n7bJfiR-345" vertex="1">
                    <mxGeometry x="30" width="150" height="20" as="geometry"/>
                </mxCell>
                <mxCell id="gmR-Pt_a6dd02n7bJfiR-357" value="" style="shape=partialRectangle;collapsible=0;dropTarget=0;pointerEvents=0;fillColor=none;top=0;left=0;bottom=0;right=0;points=[[0,0.5],[1,0.5]];portConstraint=eastwest;" parent="gmR-Pt_a6dd02n7bJfiR-335" vertex="1">
                    <mxGeometry y="120" width="180" height="20" as="geometry"/>
                </mxCell>
                <mxCell id="gmR-Pt_a6dd02n7bJfiR-358" value="" style="shape=partialRectangle;connectable=0;fillColor=none;top=0;left=0;bottom=0;right=0;editable=1;overflow=hidden;fontStyle=1" parent="gmR-Pt_a6dd02n7bJfiR-357" vertex="1">
                    <mxGeometry width="30" height="20" as="geometry"/>
                </mxCell>
                <mxCell id="gmR-Pt_a6dd02n7bJfiR-359" value="status" style="shape=partialRectangle;connectable=0;fillColor=none;top=0;left=0;bottom=0;right=0;align=left;spacingLeft=6;overflow=hidden;" parent="gmR-Pt_a6dd02n7bJfiR-357" vertex="1">
                    <mxGeometry x="30" width="150" height="20" as="geometry"/>
                </mxCell>
                <mxCell id="gmR-Pt_a6dd02n7bJfiR-348" value="" style="shape=partialRectangle;collapsible=0;dropTarget=0;pointerEvents=0;fillColor=none;top=0;left=0;bottom=0;right=0;points=[[0,0.5],[1,0.5]];portConstraint=eastwest;" parent="gmR-Pt_a6dd02n7bJfiR-335" vertex="1">
                    <mxGeometry y="140" width="180" height="20" as="geometry"/>
                </mxCell>
                <mxCell id="gmR-Pt_a6dd02n7bJfiR-349" value="" style="shape=partialRectangle;connectable=0;fillColor=none;top=0;left=0;bottom=0;right=0;editable=1;overflow=hidden;" parent="gmR-Pt_a6dd02n7bJfiR-348" vertex="1">
                    <mxGeometry width="30" height="20" as="geometry"/>
                </mxCell>
                <mxCell id="gmR-Pt_a6dd02n7bJfiR-350" value="created_at" style="shape=partialRectangle;connectable=0;fillColor=none;top=0;left=0;bottom=0;right=0;align=left;spacingLeft=6;overflow=hidden;" parent="gmR-Pt_a6dd02n7bJfiR-348" vertex="1">
                    <mxGeometry x="30" width="150" height="20" as="geometry"/>
                </mxCell>
                <mxCell id="gmR-Pt_a6dd02n7bJfiR-351" value="" style="shape=partialRectangle;collapsible=0;dropTarget=0;pointerEvents=0;fillColor=none;top=0;left=0;bottom=0;right=0;points=[[0,0.5],[1,0.5]];portConstraint=eastwest;" parent="gmR-Pt_a6dd02n7bJfiR-335" vertex="1">
                    <mxGeometry y="160" width="180" height="20" as="geometry"/>
                </mxCell>
                <mxCell id="gmR-Pt_a6dd02n7bJfiR-352" value="" style="shape=partialRectangle;connectable=0;fillColor=none;top=0;left=0;bottom=0;right=0;editable=1;overflow=hidden;" parent="gmR-Pt_a6dd02n7bJfiR-351" vertex="1">
                    <mxGeometry width="30" height="20" as="geometry"/>
                </mxCell>
                <mxCell id="gmR-Pt_a6dd02n7bJfiR-353" value="updated_at" style="shape=partialRectangle;connectable=0;fillColor=none;top=0;left=0;bottom=0;right=0;align=left;spacingLeft=6;overflow=hidden;" parent="gmR-Pt_a6dd02n7bJfiR-351" vertex="1">
                    <mxGeometry x="30" width="150" height="20" as="geometry"/>
                </mxCell>
                <mxCell id="gmR-Pt_a6dd02n7bJfiR-354" value="" style="shape=partialRectangle;collapsible=0;dropTarget=0;pointerEvents=0;fillColor=none;top=0;left=0;bottom=0;right=0;points=[[0,0.5],[1,0.5]];portConstraint=eastwest;" parent="gmR-Pt_a6dd02n7bJfiR-335" vertex="1">
                    <mxGeometry y="180" width="180" height="20" as="geometry"/>
                </mxCell>
                <mxCell id="gmR-Pt_a6dd02n7bJfiR-355" value="" style="shape=partialRectangle;connectable=0;fillColor=none;top=0;left=0;bottom=0;right=0;editable=1;overflow=hidden;" parent="gmR-Pt_a6dd02n7bJfiR-354" vertex="1">
                    <mxGeometry width="30" height="20" as="geometry"/>
                </mxCell>
                <mxCell id="gmR-Pt_a6dd02n7bJfiR-356" value="deleted_at" style="shape=partialRectangle;connectable=0;fillColor=none;top=0;left=0;bottom=0;right=0;align=left;spacingLeft=6;overflow=hidden;" parent="gmR-Pt_a6dd02n7bJfiR-354" vertex="1">
                    <mxGeometry x="30" width="150" height="20" as="geometry"/>
                </mxCell>
                <mxCell id="gmR-Pt_a6dd02n7bJfiR-392" value="candidates" style="shape=table;startSize=30;container=1;collapsible=1;childLayout=tableLayout;fixedRows=1;rowLines=0;fontStyle=1;align=center;resizeLast=1;" parent="1" vertex="1">
                    <mxGeometry x="960" y="775" width="180" height="200" as="geometry"/>
                </mxCell>
                <mxCell id="gmR-Pt_a6dd02n7bJfiR-393" value="" style="shape=partialRectangle;collapsible=0;dropTarget=0;pointerEvents=0;fillColor=none;top=0;left=0;bottom=1;right=0;points=[[0,0.5],[1,0.5]];portConstraint=eastwest;" parent="gmR-Pt_a6dd02n7bJfiR-392" vertex="1">
                    <mxGeometry y="30" width="180" height="30" as="geometry"/>
                </mxCell>
                <mxCell id="gmR-Pt_a6dd02n7bJfiR-394" value="PK" style="shape=partialRectangle;connectable=0;fillColor=none;top=0;left=0;bottom=0;right=0;fontStyle=1;overflow=hidden;" parent="gmR-Pt_a6dd02n7bJfiR-393" vertex="1">
                    <mxGeometry width="30" height="30" as="geometry"/>
                </mxCell>
                <mxCell id="gmR-Pt_a6dd02n7bJfiR-395" value="id" style="shape=partialRectangle;connectable=0;fillColor=none;top=0;left=0;bottom=0;right=0;align=left;spacingLeft=6;fontStyle=5;overflow=hidden;" parent="gmR-Pt_a6dd02n7bJfiR-393" vertex="1">
                    <mxGeometry x="30" width="150" height="30" as="geometry"/>
                </mxCell>
                <mxCell id="gmR-Pt_a6dd02n7bJfiR-396" value="" style="shape=partialRectangle;collapsible=0;dropTarget=0;pointerEvents=0;fillColor=none;top=0;left=0;bottom=0;right=0;points=[[0,0.5],[1,0.5]];portConstraint=eastwest;" parent="gmR-Pt_a6dd02n7bJfiR-392" vertex="1">
                    <mxGeometry y="60" width="180" height="20" as="geometry"/>
                </mxCell>
                <mxCell id="gmR-Pt_a6dd02n7bJfiR-397" value="FK" style="shape=partialRectangle;connectable=0;fillColor=none;top=0;left=0;bottom=0;right=0;editable=1;overflow=hidden;fontStyle=1" parent="gmR-Pt_a6dd02n7bJfiR-396" vertex="1">
                    <mxGeometry width="30" height="20" as="geometry"/>
                </mxCell>
                <mxCell id="gmR-Pt_a6dd02n7bJfiR-398" value="election_id" style="shape=partialRectangle;connectable=0;fillColor=none;top=0;left=0;bottom=0;right=0;align=left;spacingLeft=6;overflow=hidden;" parent="gmR-Pt_a6dd02n7bJfiR-396" vertex="1">
                    <mxGeometry x="30" width="150" height="20" as="geometry"/>
                </mxCell>
                <mxCell id="gmR-Pt_a6dd02n7bJfiR-399" value="" style="shape=partialRectangle;collapsible=0;dropTarget=0;pointerEvents=0;fillColor=none;top=0;left=0;bottom=0;right=0;points=[[0,0.5],[1,0.5]];portConstraint=eastwest;" parent="gmR-Pt_a6dd02n7bJfiR-392" vertex="1">
                    <mxGeometry y="80" width="180" height="20" as="geometry"/>
                </mxCell>
                <mxCell id="gmR-Pt_a6dd02n7bJfiR-400" value="FK" style="shape=partialRectangle;connectable=0;fillColor=none;top=0;left=0;bottom=0;right=0;editable=1;overflow=hidden;fontStyle=1" parent="gmR-Pt_a6dd02n7bJfiR-399" vertex="1">
                    <mxGeometry width="30" height="20" as="geometry"/>
                </mxCell>
                <mxCell id="gmR-Pt_a6dd02n7bJfiR-401" value="position_id" style="shape=partialRectangle;connectable=0;fillColor=none;top=0;left=0;bottom=0;right=0;align=left;spacingLeft=6;overflow=hidden;" parent="gmR-Pt_a6dd02n7bJfiR-399" vertex="1">
                    <mxGeometry x="30" width="150" height="20" as="geometry"/>
                </mxCell>
                <mxCell id="gmR-Pt_a6dd02n7bJfiR-402" value="" style="shape=partialRectangle;collapsible=0;dropTarget=0;pointerEvents=0;fillColor=none;top=0;left=0;bottom=0;right=0;points=[[0,0.5],[1,0.5]];portConstraint=eastwest;" parent="gmR-Pt_a6dd02n7bJfiR-392" vertex="1">
                    <mxGeometry y="100" width="180" height="20" as="geometry"/>
                </mxCell>
                <mxCell id="gmR-Pt_a6dd02n7bJfiR-403" value="FK" style="shape=partialRectangle;connectable=0;fillColor=none;top=0;left=0;bottom=0;right=0;editable=1;overflow=hidden;fontStyle=1" parent="gmR-Pt_a6dd02n7bJfiR-402" vertex="1">
                    <mxGeometry width="30" height="20" as="geometry"/>
                </mxCell>
                <mxCell id="gmR-Pt_a6dd02n7bJfiR-404" value="user_id" style="shape=partialRectangle;connectable=0;fillColor=none;top=0;left=0;bottom=0;right=0;align=left;spacingLeft=6;overflow=hidden;" parent="gmR-Pt_a6dd02n7bJfiR-402" vertex="1">
                    <mxGeometry x="30" width="150" height="20" as="geometry"/>
                </mxCell>
                <mxCell id="gmR-Pt_a6dd02n7bJfiR-414" value="" style="shape=partialRectangle;collapsible=0;dropTarget=0;pointerEvents=0;fillColor=none;top=0;left=0;bottom=0;right=0;points=[[0,0.5],[1,0.5]];portConstraint=eastwest;" parent="gmR-Pt_a6dd02n7bJfiR-392" vertex="1">
                    <mxGeometry y="120" width="180" height="20" as="geometry"/>
                </mxCell>
                <mxCell id="gmR-Pt_a6dd02n7bJfiR-415" value="" style="shape=partialRectangle;connectable=0;fillColor=none;top=0;left=0;bottom=0;right=0;editable=1;overflow=hidden;fontStyle=1" parent="gmR-Pt_a6dd02n7bJfiR-414" vertex="1">
                    <mxGeometry width="30" height="20" as="geometry"/>
                </mxCell>
                <mxCell id="gmR-Pt_a6dd02n7bJfiR-416" value="photo" style="shape=partialRectangle;connectable=0;fillColor=none;top=0;left=0;bottom=0;right=0;align=left;spacingLeft=6;overflow=hidden;" parent="gmR-Pt_a6dd02n7bJfiR-414" vertex="1">
                    <mxGeometry x="30" width="150" height="20" as="geometry"/>
                </mxCell>
                <mxCell id="gmR-Pt_a6dd02n7bJfiR-405" value="" style="shape=partialRectangle;collapsible=0;dropTarget=0;pointerEvents=0;fillColor=none;top=0;left=0;bottom=0;right=0;points=[[0,0.5],[1,0.5]];portConstraint=eastwest;" parent="gmR-Pt_a6dd02n7bJfiR-392" vertex="1">
                    <mxGeometry y="140" width="180" height="20" as="geometry"/>
                </mxCell>
                <mxCell id="gmR-Pt_a6dd02n7bJfiR-406" value="" style="shape=partialRectangle;connectable=0;fillColor=none;top=0;left=0;bottom=0;right=0;editable=1;overflow=hidden;" parent="gmR-Pt_a6dd02n7bJfiR-405" vertex="1">
                    <mxGeometry width="30" height="20" as="geometry"/>
                </mxCell>
                <mxCell id="gmR-Pt_a6dd02n7bJfiR-407" value="created_at" style="shape=partialRectangle;connectable=0;fillColor=none;top=0;left=0;bottom=0;right=0;align=left;spacingLeft=6;overflow=hidden;" parent="gmR-Pt_a6dd02n7bJfiR-405" vertex="1">
                    <mxGeometry x="30" width="150" height="20" as="geometry"/>
                </mxCell>
                <mxCell id="gmR-Pt_a6dd02n7bJfiR-408" value="" style="shape=partialRectangle;collapsible=0;dropTarget=0;pointerEvents=0;fillColor=none;top=0;left=0;bottom=0;right=0;points=[[0,0.5],[1,0.5]];portConstraint=eastwest;" parent="gmR-Pt_a6dd02n7bJfiR-392" vertex="1">
                    <mxGeometry y="160" width="180" height="20" as="geometry"/>
                </mxCell>
                <mxCell id="gmR-Pt_a6dd02n7bJfiR-409" value="" style="shape=partialRectangle;connectable=0;fillColor=none;top=0;left=0;bottom=0;right=0;editable=1;overflow=hidden;" parent="gmR-Pt_a6dd02n7bJfiR-408" vertex="1">
                    <mxGeometry width="30" height="20" as="geometry"/>
                </mxCell>
                <mxCell id="gmR-Pt_a6dd02n7bJfiR-410" value="updated_at" style="shape=partialRectangle;connectable=0;fillColor=none;top=0;left=0;bottom=0;right=0;align=left;spacingLeft=6;overflow=hidden;" parent="gmR-Pt_a6dd02n7bJfiR-408" vertex="1">
                    <mxGeometry x="30" width="150" height="20" as="geometry"/>
                </mxCell>
                <mxCell id="gmR-Pt_a6dd02n7bJfiR-411" value="" style="shape=partialRectangle;collapsible=0;dropTarget=0;pointerEvents=0;fillColor=none;top=0;left=0;bottom=0;right=0;points=[[0,0.5],[1,0.5]];portConstraint=eastwest;" parent="gmR-Pt_a6dd02n7bJfiR-392" vertex="1">
                    <mxGeometry y="180" width="180" height="20" as="geometry"/>
                </mxCell>
                <mxCell id="gmR-Pt_a6dd02n7bJfiR-412" value="" style="shape=partialRectangle;connectable=0;fillColor=none;top=0;left=0;bottom=0;right=0;editable=1;overflow=hidden;" parent="gmR-Pt_a6dd02n7bJfiR-411" vertex="1">
                    <mxGeometry width="30" height="20" as="geometry"/>
                </mxCell>
                <mxCell id="gmR-Pt_a6dd02n7bJfiR-413" value="deleted_at" style="shape=partialRectangle;connectable=0;fillColor=none;top=0;left=0;bottom=0;right=0;align=left;spacingLeft=6;overflow=hidden;" parent="gmR-Pt_a6dd02n7bJfiR-411" vertex="1">
                    <mxGeometry x="30" width="150" height="20" as="geometry"/>
                </mxCell>
                <mxCell id="gmR-Pt_a6dd02n7bJfiR-471" style="edgeStyle=orthogonalEdgeStyle;rounded=0;orthogonalLoop=1;jettySize=auto;html=1;exitX=0;exitY=0.5;exitDx=0;exitDy=0;entryX=0;entryY=0;entryDx=0;entryDy=0;entryPerimeter=0;" parent="gmR-Pt_a6dd02n7bJfiR-392" source="gmR-Pt_a6dd02n7bJfiR-405" target="gmR-Pt_a6dd02n7bJfiR-405" edge="1">
                    <mxGeometry relative="1" as="geometry"/>
                </mxCell>
                <mxCell id="gmR-Pt_a6dd02n7bJfiR-417" value="positions" style="shape=table;startSize=30;container=1;collapsible=1;childLayout=tableLayout;fixedRows=1;rowLines=0;fontStyle=1;align=center;resizeLast=1;" parent="1" vertex="1">
                    <mxGeometry x="960" y="989" width="180" height="180" as="geometry"/>
                </mxCell>
                <mxCell id="gmR-Pt_a6dd02n7bJfiR-418" value="" style="shape=partialRectangle;collapsible=0;dropTarget=0;pointerEvents=0;fillColor=none;top=0;left=0;bottom=1;right=0;points=[[0,0.5],[1,0.5]];portConstraint=eastwest;" parent="gmR-Pt_a6dd02n7bJfiR-417" vertex="1">
                    <mxGeometry y="30" width="180" height="30" as="geometry"/>
                </mxCell>
                <mxCell id="gmR-Pt_a6dd02n7bJfiR-419" value="PK" style="shape=partialRectangle;connectable=0;fillColor=none;top=0;left=0;bottom=0;right=0;fontStyle=1;overflow=hidden;" parent="gmR-Pt_a6dd02n7bJfiR-418" vertex="1">
                    <mxGeometry width="30" height="30" as="geometry"/>
                </mxCell>
                <mxCell id="gmR-Pt_a6dd02n7bJfiR-420" value="id" style="shape=partialRectangle;connectable=0;fillColor=none;top=0;left=0;bottom=0;right=0;align=left;spacingLeft=6;fontStyle=5;overflow=hidden;" parent="gmR-Pt_a6dd02n7bJfiR-418" vertex="1">
                    <mxGeometry x="30" width="150" height="30" as="geometry"/>
                </mxCell>
                <mxCell id="gmR-Pt_a6dd02n7bJfiR-421" value="" style="shape=partialRectangle;collapsible=0;dropTarget=0;pointerEvents=0;fillColor=none;top=0;left=0;bottom=0;right=0;points=[[0,0.5],[1,0.5]];portConstraint=eastwest;" parent="gmR-Pt_a6dd02n7bJfiR-417" vertex="1">
                    <mxGeometry y="60" width="180" height="20" as="geometry"/>
                </mxCell>
                <mxCell id="gmR-Pt_a6dd02n7bJfiR-422" value="FK" style="shape=partialRectangle;connectable=0;fillColor=none;top=0;left=0;bottom=0;right=0;editable=1;overflow=hidden;fontStyle=1" parent="gmR-Pt_a6dd02n7bJfiR-421" vertex="1">
                    <mxGeometry width="30" height="20" as="geometry"/>
                </mxCell>
                <mxCell id="gmR-Pt_a6dd02n7bJfiR-423" value="election_id" style="shape=partialRectangle;connectable=0;fillColor=none;top=0;left=0;bottom=0;right=0;align=left;spacingLeft=6;overflow=hidden;" parent="gmR-Pt_a6dd02n7bJfiR-421" vertex="1">
                    <mxGeometry x="30" width="150" height="20" as="geometry"/>
                </mxCell>
                <mxCell id="gmR-Pt_a6dd02n7bJfiR-424" value="" style="shape=partialRectangle;collapsible=0;dropTarget=0;pointerEvents=0;fillColor=none;top=0;left=0;bottom=0;right=0;points=[[0,0.5],[1,0.5]];portConstraint=eastwest;" parent="gmR-Pt_a6dd02n7bJfiR-417" vertex="1">
                    <mxGeometry y="80" width="180" height="20" as="geometry"/>
                </mxCell>
                <mxCell id="gmR-Pt_a6dd02n7bJfiR-425" value="" style="shape=partialRectangle;connectable=0;fillColor=none;top=0;left=0;bottom=0;right=0;editable=1;overflow=hidden;fontStyle=1" parent="gmR-Pt_a6dd02n7bJfiR-424" vertex="1">
                    <mxGeometry width="30" height="20" as="geometry"/>
                </mxCell>
                <mxCell id="gmR-Pt_a6dd02n7bJfiR-426" value="name" style="shape=partialRectangle;connectable=0;fillColor=none;top=0;left=0;bottom=0;right=0;align=left;spacingLeft=6;overflow=hidden;" parent="gmR-Pt_a6dd02n7bJfiR-424" vertex="1">
                    <mxGeometry x="30" width="150" height="20" as="geometry"/>
                </mxCell>
                <mxCell id="5LnNcQllCpH-_-lJVJDu-86" value="" style="shape=partialRectangle;collapsible=0;dropTarget=0;pointerEvents=0;fillColor=none;top=0;left=0;bottom=0;right=0;points=[[0,0.5],[1,0.5]];portConstraint=eastwest;" parent="gmR-Pt_a6dd02n7bJfiR-417" vertex="1">
                    <mxGeometry y="100" width="180" height="20" as="geometry"/>
                </mxCell>
                <mxCell id="5LnNcQllCpH-_-lJVJDu-87" value="" style="shape=partialRectangle;connectable=0;fillColor=none;top=0;left=0;bottom=0;right=0;editable=1;overflow=hidden;fontStyle=1" parent="5LnNcQllCpH-_-lJVJDu-86" vertex="1">
                    <mxGeometry width="30" height="20" as="geometry"/>
                </mxCell>
                <mxCell id="5LnNcQllCpH-_-lJVJDu-88" value="max_candidate" style="shape=partialRectangle;connectable=0;fillColor=none;top=0;left=0;bottom=0;right=0;align=left;spacingLeft=6;overflow=hidden;" parent="5LnNcQllCpH-_-lJVJDu-86" vertex="1">
                    <mxGeometry x="30" width="150" height="20" as="geometry"/>
                </mxCell>
                <mxCell id="gmR-Pt_a6dd02n7bJfiR-433" value="" style="shape=partialRectangle;collapsible=0;dropTarget=0;pointerEvents=0;fillColor=none;top=0;left=0;bottom=0;right=0;points=[[0,0.5],[1,0.5]];portConstraint=eastwest;" parent="gmR-Pt_a6dd02n7bJfiR-417" vertex="1">
                    <mxGeometry y="120" width="180" height="20" as="geometry"/>
                </mxCell>
                <mxCell id="gmR-Pt_a6dd02n7bJfiR-434" value="" style="shape=partialRectangle;connectable=0;fillColor=none;top=0;left=0;bottom=0;right=0;editable=1;overflow=hidden;" parent="gmR-Pt_a6dd02n7bJfiR-433" vertex="1">
                    <mxGeometry width="30" height="20" as="geometry"/>
                </mxCell>
                <mxCell id="gmR-Pt_a6dd02n7bJfiR-435" value="created_at" style="shape=partialRectangle;connectable=0;fillColor=none;top=0;left=0;bottom=0;right=0;align=left;spacingLeft=6;overflow=hidden;" parent="gmR-Pt_a6dd02n7bJfiR-433" vertex="1">
                    <mxGeometry x="30" width="150" height="20" as="geometry"/>
                </mxCell>
                <mxCell id="gmR-Pt_a6dd02n7bJfiR-436" value="" style="shape=partialRectangle;collapsible=0;dropTarget=0;pointerEvents=0;fillColor=none;top=0;left=0;bottom=0;right=0;points=[[0,0.5],[1,0.5]];portConstraint=eastwest;" parent="gmR-Pt_a6dd02n7bJfiR-417" vertex="1">
                    <mxGeometry y="140" width="180" height="20" as="geometry"/>
                </mxCell>
                <mxCell id="gmR-Pt_a6dd02n7bJfiR-437" value="" style="shape=partialRectangle;connectable=0;fillColor=none;top=0;left=0;bottom=0;right=0;editable=1;overflow=hidden;" parent="gmR-Pt_a6dd02n7bJfiR-436" vertex="1">
                    <mxGeometry width="30" height="20" as="geometry"/>
                </mxCell>
                <mxCell id="gmR-Pt_a6dd02n7bJfiR-438" value="updated_at" style="shape=partialRectangle;connectable=0;fillColor=none;top=0;left=0;bottom=0;right=0;align=left;spacingLeft=6;overflow=hidden;" parent="gmR-Pt_a6dd02n7bJfiR-436" vertex="1">
                    <mxGeometry x="30" width="150" height="20" as="geometry"/>
                </mxCell>
                <mxCell id="gmR-Pt_a6dd02n7bJfiR-439" value="" style="shape=partialRectangle;collapsible=0;dropTarget=0;pointerEvents=0;fillColor=none;top=0;left=0;bottom=0;right=0;points=[[0,0.5],[1,0.5]];portConstraint=eastwest;" parent="gmR-Pt_a6dd02n7bJfiR-417" vertex="1">
                    <mxGeometry y="160" width="180" height="20" as="geometry"/>
                </mxCell>
                <mxCell id="gmR-Pt_a6dd02n7bJfiR-440" value="" style="shape=partialRectangle;connectable=0;fillColor=none;top=0;left=0;bottom=0;right=0;editable=1;overflow=hidden;" parent="gmR-Pt_a6dd02n7bJfiR-439" vertex="1">
                    <mxGeometry width="30" height="20" as="geometry"/>
                </mxCell>
                <mxCell id="gmR-Pt_a6dd02n7bJfiR-441" value="deleted_at" style="shape=partialRectangle;connectable=0;fillColor=none;top=0;left=0;bottom=0;right=0;align=left;spacingLeft=6;overflow=hidden;" parent="gmR-Pt_a6dd02n7bJfiR-439" vertex="1">
                    <mxGeometry x="30" width="150" height="20" as="geometry"/>
                </mxCell>
                <mxCell id="gmR-Pt_a6dd02n7bJfiR-445" value="candidates" style="shape=table;startSize=30;container=1;collapsible=1;childLayout=tableLayout;fixedRows=1;rowLines=0;fontStyle=1;align=center;resizeLast=1;" parent="1" vertex="1">
                    <mxGeometry x="580" y="790" width="180" height="220" as="geometry"/>
                </mxCell>
                <mxCell id="gmR-Pt_a6dd02n7bJfiR-446" value="" style="shape=partialRectangle;collapsible=0;dropTarget=0;pointerEvents=0;fillColor=none;top=0;left=0;bottom=1;right=0;points=[[0,0.5],[1,0.5]];portConstraint=eastwest;" parent="gmR-Pt_a6dd02n7bJfiR-445" vertex="1">
                    <mxGeometry y="30" width="180" height="30" as="geometry"/>
                </mxCell>
                <mxCell id="gmR-Pt_a6dd02n7bJfiR-447" value="PK" style="shape=partialRectangle;connectable=0;fillColor=none;top=0;left=0;bottom=0;right=0;fontStyle=1;overflow=hidden;" parent="gmR-Pt_a6dd02n7bJfiR-446" vertex="1">
                    <mxGeometry width="30" height="30" as="geometry"/>
                </mxCell>
                <mxCell id="gmR-Pt_a6dd02n7bJfiR-448" value="id" style="shape=partialRectangle;connectable=0;fillColor=none;top=0;left=0;bottom=0;right=0;align=left;spacingLeft=6;fontStyle=5;overflow=hidden;" parent="gmR-Pt_a6dd02n7bJfiR-446" vertex="1">
                    <mxGeometry x="30" width="150" height="30" as="geometry"/>
                </mxCell>
                <mxCell id="gmR-Pt_a6dd02n7bJfiR-449" value="" style="shape=partialRectangle;collapsible=0;dropTarget=0;pointerEvents=0;fillColor=none;top=0;left=0;bottom=0;right=0;points=[[0,0.5],[1,0.5]];portConstraint=eastwest;" parent="gmR-Pt_a6dd02n7bJfiR-445" vertex="1">
                    <mxGeometry y="60" width="180" height="20" as="geometry"/>
                </mxCell>
                <mxCell id="gmR-Pt_a6dd02n7bJfiR-450" value="FK" style="shape=partialRectangle;connectable=0;fillColor=none;top=0;left=0;bottom=0;right=0;editable=1;overflow=hidden;fontStyle=1" parent="gmR-Pt_a6dd02n7bJfiR-449" vertex="1">
                    <mxGeometry width="30" height="20" as="geometry"/>
                </mxCell>
                <mxCell id="gmR-Pt_a6dd02n7bJfiR-451" value="election_id" style="shape=partialRectangle;connectable=0;fillColor=none;top=0;left=0;bottom=0;right=0;align=left;spacingLeft=6;overflow=hidden;" parent="gmR-Pt_a6dd02n7bJfiR-449" vertex="1">
                    <mxGeometry x="30" width="150" height="20" as="geometry"/>
                </mxCell>
                <mxCell id="gmR-Pt_a6dd02n7bJfiR-452" value="" style="shape=partialRectangle;collapsible=0;dropTarget=0;pointerEvents=0;fillColor=none;top=0;left=0;bottom=0;right=0;points=[[0,0.5],[1,0.5]];portConstraint=eastwest;" parent="gmR-Pt_a6dd02n7bJfiR-445" vertex="1">
                    <mxGeometry y="80" width="180" height="20" as="geometry"/>
                </mxCell>
                <mxCell id="gmR-Pt_a6dd02n7bJfiR-453" value="FK" style="shape=partialRectangle;connectable=0;fillColor=none;top=0;left=0;bottom=0;right=0;editable=1;overflow=hidden;fontStyle=1" parent="gmR-Pt_a6dd02n7bJfiR-452" vertex="1">
                    <mxGeometry width="30" height="20" as="geometry"/>
                </mxCell>
                <mxCell id="gmR-Pt_a6dd02n7bJfiR-454" value="position_id" style="shape=partialRectangle;connectable=0;fillColor=none;top=0;left=0;bottom=0;right=0;align=left;spacingLeft=6;overflow=hidden;" parent="gmR-Pt_a6dd02n7bJfiR-452" vertex="1">
                    <mxGeometry x="30" width="150" height="20" as="geometry"/>
                </mxCell>
                <mxCell id="gmR-Pt_a6dd02n7bJfiR-455" value="" style="shape=partialRectangle;collapsible=0;dropTarget=0;pointerEvents=0;fillColor=none;top=0;left=0;bottom=0;right=0;points=[[0,0.5],[1,0.5]];portConstraint=eastwest;" parent="gmR-Pt_a6dd02n7bJfiR-445" vertex="1">
                    <mxGeometry y="100" width="180" height="20" as="geometry"/>
                </mxCell>
                <mxCell id="gmR-Pt_a6dd02n7bJfiR-456" value="FK" style="shape=partialRectangle;connectable=0;fillColor=none;top=0;left=0;bottom=0;right=0;editable=1;overflow=hidden;fontStyle=1" parent="gmR-Pt_a6dd02n7bJfiR-455" vertex="1">
                    <mxGeometry width="30" height="20" as="geometry"/>
                </mxCell>
                <mxCell id="gmR-Pt_a6dd02n7bJfiR-457" value="user_id" style="shape=partialRectangle;connectable=0;fillColor=none;top=0;left=0;bottom=0;right=0;align=left;spacingLeft=6;overflow=hidden;" parent="gmR-Pt_a6dd02n7bJfiR-455" vertex="1">
                    <mxGeometry x="30" width="150" height="20" as="geometry"/>
                </mxCell>
                <mxCell id="5LnNcQllCpH-_-lJVJDu-38" value="" style="shape=partialRectangle;collapsible=0;dropTarget=0;pointerEvents=0;fillColor=none;top=0;left=0;bottom=0;right=0;points=[[0,0.5],[1,0.5]];portConstraint=eastwest;" parent="gmR-Pt_a6dd02n7bJfiR-445" vertex="1">
                    <mxGeometry y="120" width="180" height="20" as="geometry"/>
                </mxCell>
                <mxCell id="5LnNcQllCpH-_-lJVJDu-39" value="" style="shape=partialRectangle;connectable=0;fillColor=none;top=0;left=0;bottom=0;right=0;editable=1;overflow=hidden;fontStyle=1" parent="5LnNcQllCpH-_-lJVJDu-38" vertex="1">
                    <mxGeometry width="30" height="20" as="geometry"/>
                </mxCell>
                <mxCell id="5LnNcQllCpH-_-lJVJDu-40" value="photo" style="shape=partialRectangle;connectable=0;fillColor=none;top=0;left=0;bottom=0;right=0;align=left;spacingLeft=6;overflow=hidden;" parent="5LnNcQllCpH-_-lJVJDu-38" vertex="1">
                    <mxGeometry x="30" width="150" height="20" as="geometry"/>
                </mxCell>
                <mxCell id="gmR-Pt_a6dd02n7bJfiR-458" value="" style="shape=partialRectangle;collapsible=0;dropTarget=0;pointerEvents=0;fillColor=none;top=0;left=0;bottom=0;right=0;points=[[0,0.5],[1,0.5]];portConstraint=eastwest;" parent="gmR-Pt_a6dd02n7bJfiR-445" vertex="1">
                    <mxGeometry y="140" width="180" height="20" as="geometry"/>
                </mxCell>
                <mxCell id="gmR-Pt_a6dd02n7bJfiR-459" value="" style="shape=partialRectangle;connectable=0;fillColor=none;top=0;left=0;bottom=0;right=0;editable=1;overflow=hidden;fontStyle=1" parent="gmR-Pt_a6dd02n7bJfiR-458" vertex="1">
                    <mxGeometry width="30" height="20" as="geometry"/>
                </mxCell>
                <mxCell id="gmR-Pt_a6dd02n7bJfiR-460" value="platform" style="shape=partialRectangle;connectable=0;fillColor=none;top=0;left=0;bottom=0;right=0;align=left;spacingLeft=6;overflow=hidden;" parent="gmR-Pt_a6dd02n7bJfiR-458" vertex="1">
                    <mxGeometry x="30" width="150" height="20" as="geometry"/>
                </mxCell>
                <mxCell id="gmR-Pt_a6dd02n7bJfiR-461" value="" style="shape=partialRectangle;collapsible=0;dropTarget=0;pointerEvents=0;fillColor=none;top=0;left=0;bottom=0;right=0;points=[[0,0.5],[1,0.5]];portConstraint=eastwest;" parent="gmR-Pt_a6dd02n7bJfiR-445" vertex="1">
                    <mxGeometry y="160" width="180" height="20" as="geometry"/>
                </mxCell>
                <mxCell id="gmR-Pt_a6dd02n7bJfiR-462" value="" style="shape=partialRectangle;connectable=0;fillColor=none;top=0;left=0;bottom=0;right=0;editable=1;overflow=hidden;" parent="gmR-Pt_a6dd02n7bJfiR-461" vertex="1">
                    <mxGeometry width="30" height="20" as="geometry"/>
                </mxCell>
                <mxCell id="gmR-Pt_a6dd02n7bJfiR-463" value="created_at" style="shape=partialRectangle;connectable=0;fillColor=none;top=0;left=0;bottom=0;right=0;align=left;spacingLeft=6;overflow=hidden;" parent="gmR-Pt_a6dd02n7bJfiR-461" vertex="1">
                    <mxGeometry x="30" width="150" height="20" as="geometry"/>
                </mxCell>
                <mxCell id="gmR-Pt_a6dd02n7bJfiR-464" value="" style="shape=partialRectangle;collapsible=0;dropTarget=0;pointerEvents=0;fillColor=none;top=0;left=0;bottom=0;right=0;points=[[0,0.5],[1,0.5]];portConstraint=eastwest;" parent="gmR-Pt_a6dd02n7bJfiR-445" vertex="1">
                    <mxGeometry y="180" width="180" height="20" as="geometry"/>
                </mxCell>
                <mxCell id="gmR-Pt_a6dd02n7bJfiR-465" value="" style="shape=partialRectangle;connectable=0;fillColor=none;top=0;left=0;bottom=0;right=0;editable=1;overflow=hidden;" parent="gmR-Pt_a6dd02n7bJfiR-464" vertex="1">
                    <mxGeometry width="30" height="20" as="geometry"/>
                </mxCell>
                <mxCell id="gmR-Pt_a6dd02n7bJfiR-466" value="updated_at" style="shape=partialRectangle;connectable=0;fillColor=none;top=0;left=0;bottom=0;right=0;align=left;spacingLeft=6;overflow=hidden;" parent="gmR-Pt_a6dd02n7bJfiR-464" vertex="1">
                    <mxGeometry x="30" width="150" height="20" as="geometry"/>
                </mxCell>
                <mxCell id="gmR-Pt_a6dd02n7bJfiR-467" value="" style="shape=partialRectangle;collapsible=0;dropTarget=0;pointerEvents=0;fillColor=none;top=0;left=0;bottom=0;right=0;points=[[0,0.5],[1,0.5]];portConstraint=eastwest;" parent="gmR-Pt_a6dd02n7bJfiR-445" vertex="1">
                    <mxGeometry y="200" width="180" height="20" as="geometry"/>
                </mxCell>
                <mxCell id="gmR-Pt_a6dd02n7bJfiR-468" value="" style="shape=partialRectangle;connectable=0;fillColor=none;top=0;left=0;bottom=0;right=0;editable=1;overflow=hidden;" parent="gmR-Pt_a6dd02n7bJfiR-467" vertex="1">
                    <mxGeometry width="30" height="20" as="geometry"/>
                </mxCell>
                <mxCell id="gmR-Pt_a6dd02n7bJfiR-469" value="deleted_at" style="shape=partialRectangle;connectable=0;fillColor=none;top=0;left=0;bottom=0;right=0;align=left;spacingLeft=6;overflow=hidden;" parent="gmR-Pt_a6dd02n7bJfiR-467" vertex="1">
                    <mxGeometry x="30" width="150" height="20" as="geometry"/>
                </mxCell>
                <mxCell id="gmR-Pt_a6dd02n7bJfiR-477" value="" style="edgeStyle=entityRelationEdgeStyle;fontSize=12;html=1;endArrow=ERoneToMany;" parent="1" source="gmR-Pt_a6dd02n7bJfiR-452" target="gmR-Pt_a6dd02n7bJfiR-418" edge="1">
                    <mxGeometry width="100" height="100" relative="1" as="geometry">
                        <mxPoint x="840" y="940" as="sourcePoint"/>
                        <mxPoint x="940" y="840" as="targetPoint"/>
                    </mxGeometry>
                </mxCell>
                <mxCell id="gmR-Pt_a6dd02n7bJfiR-480" value="" style="edgeStyle=entityRelationEdgeStyle;fontSize=12;html=1;endArrow=ERoneToMany;" parent="1" source="gmR-Pt_a6dd02n7bJfiR-77" target="gmR-Pt_a6dd02n7bJfiR-455" edge="1">
                    <mxGeometry width="100" height="100" relative="1" as="geometry">
                        <mxPoint x="860" y="850" as="sourcePoint"/>
                        <mxPoint x="960" y="750" as="targetPoint"/>
                    </mxGeometry>
                </mxCell>
                <mxCell id="gmR-Pt_a6dd02n7bJfiR-481" value="" style="edgeStyle=entityRelationEdgeStyle;fontSize=12;html=1;endArrow=ERmany;startArrow=ERmany;" parent="1" source="gmR-Pt_a6dd02n7bJfiR-449" target="gmR-Pt_a6dd02n7bJfiR-336" edge="1">
                    <mxGeometry width="100" height="100" relative="1" as="geometry">
                        <mxPoint x="900" y="960" as="sourcePoint"/>
                        <mxPoint x="1000" y="860" as="targetPoint"/>
                    </mxGeometry>
                </mxCell>
                <mxCell id="gmR-Pt_a6dd02n7bJfiR-482" value="" style="edgeStyle=entityRelationEdgeStyle;fontSize=12;html=1;endArrow=ERmany;startArrow=ERmany;" parent="1" source="gmR-Pt_a6dd02n7bJfiR-336" target="gmR-Pt_a6dd02n7bJfiR-396" edge="1">
                    <mxGeometry width="100" height="100" relative="1" as="geometry">
                        <mxPoint x="840" y="1050" as="sourcePoint"/>
                        <mxPoint x="940" y="950" as="targetPoint"/>
                    </mxGeometry>
                </mxCell>
                <mxCell id="gmR-Pt_a6dd02n7bJfiR-483" value="" style="edgeStyle=entityRelationEdgeStyle;fontSize=12;html=1;endArrow=ERmandOne;startArrow=ERmandOne;" parent="1" source="gmR-Pt_a6dd02n7bJfiR-74" target="gmR-Pt_a6dd02n7bJfiR-402" edge="1">
                    <mxGeometry width="100" height="100" relative="1" as="geometry">
                        <mxPoint x="890" y="850" as="sourcePoint"/>
                        <mxPoint x="990" y="750" as="targetPoint"/>
                    </mxGeometry>
                </mxCell>
                <mxCell id="gmR-Pt_a6dd02n7bJfiR-484" value="" style="edgeStyle=entityRelationEdgeStyle;fontSize=12;html=1;endArrow=ERmany;startArrow=ERmany;" parent="1" source="gmR-Pt_a6dd02n7bJfiR-336" target="gmR-Pt_a6dd02n7bJfiR-421" edge="1">
                    <mxGeometry width="100" height="100" relative="1" as="geometry">
                        <mxPoint x="850" y="1220" as="sourcePoint"/>
                        <mxPoint x="950" y="1120" as="targetPoint"/>
                    </mxGeometry>
                </mxCell>
                <mxCell id="gmR-Pt_a6dd02n7bJfiR-485" value="" style="edgeStyle=entityRelationEdgeStyle;fontSize=12;html=1;endArrow=ERmany;startArrow=ERmany;" parent="1" source="gmR-Pt_a6dd02n7bJfiR-418" target="gmR-Pt_a6dd02n7bJfiR-399" edge="1">
                    <mxGeometry width="100" height="100" relative="1" as="geometry">
                        <mxPoint x="815" y="1005" as="sourcePoint"/>
                        <mxPoint x="915" y="905" as="targetPoint"/>
                    </mxGeometry>
                </mxCell>
                <mxCell id="gmR-Pt_a6dd02n7bJfiR-486" value="votes" style="shape=table;startSize=30;container=1;collapsible=1;childLayout=tableLayout;fixedRows=1;rowLines=0;fontStyle=1;align=center;resizeLast=1;" parent="1" vertex="1">
                    <mxGeometry x="860" y="1220" width="180" height="120" as="geometry"/>
                </mxCell>
                <mxCell id="gmR-Pt_a6dd02n7bJfiR-487" value="" style="shape=partialRectangle;collapsible=0;dropTarget=0;pointerEvents=0;fillColor=none;top=0;left=0;bottom=1;right=0;points=[[0,0.5],[1,0.5]];portConstraint=eastwest;" parent="gmR-Pt_a6dd02n7bJfiR-486" vertex="1">
                    <mxGeometry y="30" width="180" height="30" as="geometry"/>
                </mxCell>
                <mxCell id="gmR-Pt_a6dd02n7bJfiR-488" value="PK" style="shape=partialRectangle;connectable=0;fillColor=none;top=0;left=0;bottom=0;right=0;fontStyle=1;overflow=hidden;" parent="gmR-Pt_a6dd02n7bJfiR-487" vertex="1">
                    <mxGeometry width="30" height="30" as="geometry"/>
                </mxCell>
                <mxCell id="gmR-Pt_a6dd02n7bJfiR-489" value="id" style="shape=partialRectangle;connectable=0;fillColor=none;top=0;left=0;bottom=0;right=0;align=left;spacingLeft=6;fontStyle=5;overflow=hidden;" parent="gmR-Pt_a6dd02n7bJfiR-487" vertex="1">
                    <mxGeometry x="30" width="150" height="30" as="geometry"/>
                </mxCell>
                <mxCell id="gmR-Pt_a6dd02n7bJfiR-490" value="" style="shape=partialRectangle;collapsible=0;dropTarget=0;pointerEvents=0;fillColor=none;top=0;left=0;bottom=0;right=0;points=[[0,0.5],[1,0.5]];portConstraint=eastwest;" parent="gmR-Pt_a6dd02n7bJfiR-486" vertex="1">
                    <mxGeometry y="60" width="180" height="20" as="geometry"/>
                </mxCell>
                <mxCell id="gmR-Pt_a6dd02n7bJfiR-491" value="FK" style="shape=partialRectangle;connectable=0;fillColor=none;top=0;left=0;bottom=0;right=0;editable=1;overflow=hidden;fontStyle=1" parent="gmR-Pt_a6dd02n7bJfiR-490" vertex="1">
                    <mxGeometry width="30" height="20" as="geometry"/>
                </mxCell>
                <mxCell id="gmR-Pt_a6dd02n7bJfiR-492" value="election_id" style="shape=partialRectangle;connectable=0;fillColor=none;top=0;left=0;bottom=0;right=0;align=left;spacingLeft=6;overflow=hidden;" parent="gmR-Pt_a6dd02n7bJfiR-490" vertex="1">
                    <mxGeometry x="30" width="150" height="20" as="geometry"/>
                </mxCell>
                <mxCell id="gmR-Pt_a6dd02n7bJfiR-493" value="" style="shape=partialRectangle;collapsible=0;dropTarget=0;pointerEvents=0;fillColor=none;top=0;left=0;bottom=0;right=0;points=[[0,0.5],[1,0.5]];portConstraint=eastwest;" parent="gmR-Pt_a6dd02n7bJfiR-486" vertex="1">
                    <mxGeometry y="80" width="180" height="20" as="geometry"/>
                </mxCell>
                <mxCell id="gmR-Pt_a6dd02n7bJfiR-494" value="FK" style="shape=partialRectangle;connectable=0;fillColor=none;top=0;left=0;bottom=0;right=0;editable=1;overflow=hidden;fontStyle=1" parent="gmR-Pt_a6dd02n7bJfiR-493" vertex="1">
                    <mxGeometry width="30" height="20" as="geometry"/>
                </mxCell>
                <mxCell id="gmR-Pt_a6dd02n7bJfiR-495" value="voters_id" style="shape=partialRectangle;connectable=0;fillColor=none;top=0;left=0;bottom=0;right=0;align=left;spacingLeft=6;overflow=hidden;" parent="gmR-Pt_a6dd02n7bJfiR-493" vertex="1">
                    <mxGeometry x="30" width="150" height="20" as="geometry"/>
                </mxCell>
                <mxCell id="gmR-Pt_a6dd02n7bJfiR-496" value="" style="shape=partialRectangle;collapsible=0;dropTarget=0;pointerEvents=0;fillColor=none;top=0;left=0;bottom=0;right=0;points=[[0,0.5],[1,0.5]];portConstraint=eastwest;" parent="gmR-Pt_a6dd02n7bJfiR-486" vertex="1">
                    <mxGeometry y="100" width="180" height="20" as="geometry"/>
                </mxCell>
                <mxCell id="gmR-Pt_a6dd02n7bJfiR-497" value="" style="shape=partialRectangle;connectable=0;fillColor=none;top=0;left=0;bottom=0;right=0;editable=1;overflow=hidden;" parent="gmR-Pt_a6dd02n7bJfiR-496" vertex="1">
                    <mxGeometry width="30" height="20" as="geometry"/>
                </mxCell>
                <mxCell id="gmR-Pt_a6dd02n7bJfiR-498" value="date_casted" style="shape=partialRectangle;connectable=0;fillColor=none;top=0;left=0;bottom=0;right=0;align=left;spacingLeft=6;overflow=hidden;" parent="gmR-Pt_a6dd02n7bJfiR-496" vertex="1">
                    <mxGeometry x="30" width="150" height="20" as="geometry"/>
                </mxCell>
                <mxCell id="gmR-Pt_a6dd02n7bJfiR-511" value="vote_details" style="shape=table;startSize=30;container=1;collapsible=1;childLayout=tableLayout;fixedRows=1;rowLines=0;fontStyle=1;align=center;resizeLast=1;" parent="1" vertex="1">
                    <mxGeometry x="1120" y="1220" width="180" height="120" as="geometry"/>
                </mxCell>
                <mxCell id="gmR-Pt_a6dd02n7bJfiR-512" value="" style="shape=partialRectangle;collapsible=0;dropTarget=0;pointerEvents=0;fillColor=none;top=0;left=0;bottom=1;right=0;points=[[0,0.5],[1,0.5]];portConstraint=eastwest;" parent="gmR-Pt_a6dd02n7bJfiR-511" vertex="1">
                    <mxGeometry y="30" width="180" height="30" as="geometry"/>
                </mxCell>
                <mxCell id="gmR-Pt_a6dd02n7bJfiR-513" value="PK" style="shape=partialRectangle;connectable=0;fillColor=none;top=0;left=0;bottom=0;right=0;fontStyle=1;overflow=hidden;" parent="gmR-Pt_a6dd02n7bJfiR-512" vertex="1">
                    <mxGeometry width="30" height="30" as="geometry"/>
                </mxCell>
                <mxCell id="gmR-Pt_a6dd02n7bJfiR-514" value="id" style="shape=partialRectangle;connectable=0;fillColor=none;top=0;left=0;bottom=0;right=0;align=left;spacingLeft=6;fontStyle=5;overflow=hidden;" parent="gmR-Pt_a6dd02n7bJfiR-512" vertex="1">
                    <mxGeometry x="30" width="150" height="30" as="geometry"/>
                </mxCell>
                <mxCell id="gmR-Pt_a6dd02n7bJfiR-515" value="" style="shape=partialRectangle;collapsible=0;dropTarget=0;pointerEvents=0;fillColor=none;top=0;left=0;bottom=0;right=0;points=[[0,0.5],[1,0.5]];portConstraint=eastwest;" parent="gmR-Pt_a6dd02n7bJfiR-511" vertex="1">
                    <mxGeometry y="60" width="180" height="20" as="geometry"/>
                </mxCell>
                <mxCell id="gmR-Pt_a6dd02n7bJfiR-516" value="FK" style="shape=partialRectangle;connectable=0;fillColor=none;top=0;left=0;bottom=0;right=0;editable=1;overflow=hidden;fontStyle=1" parent="gmR-Pt_a6dd02n7bJfiR-515" vertex="1">
                    <mxGeometry width="30" height="20" as="geometry"/>
                </mxCell>
                <mxCell id="gmR-Pt_a6dd02n7bJfiR-517" value="votes_id" style="shape=partialRectangle;connectable=0;fillColor=none;top=0;left=0;bottom=0;right=0;align=left;spacingLeft=6;overflow=hidden;" parent="gmR-Pt_a6dd02n7bJfiR-515" vertex="1">
                    <mxGeometry x="30" width="150" height="20" as="geometry"/>
                </mxCell>
                <mxCell id="gmR-Pt_a6dd02n7bJfiR-518" value="" style="shape=partialRectangle;collapsible=0;dropTarget=0;pointerEvents=0;fillColor=none;top=0;left=0;bottom=0;right=0;points=[[0,0.5],[1,0.5]];portConstraint=eastwest;" parent="gmR-Pt_a6dd02n7bJfiR-511" vertex="1">
                    <mxGeometry y="80" width="180" height="20" as="geometry"/>
                </mxCell>
                <mxCell id="gmR-Pt_a6dd02n7bJfiR-519" value="FK" style="shape=partialRectangle;connectable=0;fillColor=none;top=0;left=0;bottom=0;right=0;editable=1;overflow=hidden;fontStyle=1" parent="gmR-Pt_a6dd02n7bJfiR-518" vertex="1">
                    <mxGeometry width="30" height="20" as="geometry"/>
                </mxCell>
                <mxCell id="gmR-Pt_a6dd02n7bJfiR-520" value="position_id" style="shape=partialRectangle;connectable=0;fillColor=none;top=0;left=0;bottom=0;right=0;align=left;spacingLeft=6;overflow=hidden;" parent="gmR-Pt_a6dd02n7bJfiR-518" vertex="1">
                    <mxGeometry x="30" width="150" height="20" as="geometry"/>
                </mxCell>
                <mxCell id="gmR-Pt_a6dd02n7bJfiR-521" value="" style="shape=partialRectangle;collapsible=0;dropTarget=0;pointerEvents=0;fillColor=none;top=0;left=0;bottom=0;right=0;points=[[0,0.5],[1,0.5]];portConstraint=eastwest;" parent="gmR-Pt_a6dd02n7bJfiR-511" vertex="1">
                    <mxGeometry y="100" width="180" height="20" as="geometry"/>
                </mxCell>
                <mxCell id="gmR-Pt_a6dd02n7bJfiR-522" value="FK" style="shape=partialRectangle;connectable=0;fillColor=none;top=0;left=0;bottom=0;right=0;editable=1;overflow=hidden;fontStyle=1" parent="gmR-Pt_a6dd02n7bJfiR-521" vertex="1">
                    <mxGeometry width="30" height="20" as="geometry"/>
                </mxCell>
                <mxCell id="gmR-Pt_a6dd02n7bJfiR-523" value="candidate_id" style="shape=partialRectangle;connectable=0;fillColor=none;top=0;left=0;bottom=0;right=0;align=left;spacingLeft=6;overflow=hidden;" parent="gmR-Pt_a6dd02n7bJfiR-521" vertex="1">
                    <mxGeometry x="30" width="150" height="20" as="geometry"/>
                </mxCell>
                <mxCell id="gmR-Pt_a6dd02n7bJfiR-524" value="" style="edgeStyle=entityRelationEdgeStyle;fontSize=12;html=1;endArrow=ERmany;startArrow=ERmany;" parent="1" source="gmR-Pt_a6dd02n7bJfiR-336" target="gmR-Pt_a6dd02n7bJfiR-490" edge="1">
                    <mxGeometry width="100" height="100" relative="1" as="geometry">
                        <mxPoint x="710" y="1380" as="sourcePoint"/>
                        <mxPoint x="810" y="1280" as="targetPoint"/>
                    </mxGeometry>
                </mxCell>
                <mxCell id="gmR-Pt_a6dd02n7bJfiR-525" value="" style="edgeStyle=entityRelationEdgeStyle;fontSize=12;html=1;endArrow=ERmany;startArrow=ERmany;" parent="1" source="gmR-Pt_a6dd02n7bJfiR-71" target="gmR-Pt_a6dd02n7bJfiR-493" edge="1">
                    <mxGeometry width="100" height="100" relative="1" as="geometry">
                        <mxPoint x="780" y="1410" as="sourcePoint"/>
                        <mxPoint x="880" y="1310" as="targetPoint"/>
                    </mxGeometry>
                </mxCell>
                <mxCell id="gmR-Pt_a6dd02n7bJfiR-526" value="" style="edgeStyle=entityRelationEdgeStyle;fontSize=12;html=1;endArrow=ERoneToMany;" parent="1" source="gmR-Pt_a6dd02n7bJfiR-439" target="gmR-Pt_a6dd02n7bJfiR-518" edge="1">
                    <mxGeometry width="100" height="100" relative="1" as="geometry">
                        <mxPoint x="1220" y="1170" as="sourcePoint"/>
                        <mxPoint x="1320" y="1070" as="targetPoint"/>
                    </mxGeometry>
                </mxCell>
                <mxCell id="gmR-Pt_a6dd02n7bJfiR-527" value="" style="edgeStyle=entityRelationEdgeStyle;fontSize=12;html=1;endArrow=ERoneToMany;" parent="1" source="gmR-Pt_a6dd02n7bJfiR-487" target="gmR-Pt_a6dd02n7bJfiR-515" edge="1">
                    <mxGeometry width="100" height="100" relative="1" as="geometry">
                        <mxPoint x="1030" y="1480" as="sourcePoint"/>
                        <mxPoint x="1130" y="1380" as="targetPoint"/>
                    </mxGeometry>
                </mxCell>
                <mxCell id="gmR-Pt_a6dd02n7bJfiR-542" value="threads" style="shape=table;startSize=30;container=1;collapsible=1;childLayout=tableLayout;fixedRows=1;rowLines=0;fontStyle=1;align=center;resizeLast=1;" parent="1" vertex="1">
                    <mxGeometry x="570" y="40" width="180" height="220" as="geometry"/>
                </mxCell>
                <mxCell id="gmR-Pt_a6dd02n7bJfiR-543" value="" style="shape=partialRectangle;collapsible=0;dropTarget=0;pointerEvents=0;fillColor=none;top=0;left=0;bottom=1;right=0;points=[[0,0.5],[1,0.5]];portConstraint=eastwest;" parent="gmR-Pt_a6dd02n7bJfiR-542" vertex="1">
                    <mxGeometry y="30" width="180" height="30" as="geometry"/>
                </mxCell>
                <mxCell id="gmR-Pt_a6dd02n7bJfiR-544" value="PK" style="shape=partialRectangle;connectable=0;fillColor=none;top=0;left=0;bottom=0;right=0;fontStyle=1;overflow=hidden;" parent="gmR-Pt_a6dd02n7bJfiR-543" vertex="1">
                    <mxGeometry width="30" height="30" as="geometry"/>
                </mxCell>
                <mxCell id="gmR-Pt_a6dd02n7bJfiR-545" value="id" style="shape=partialRectangle;connectable=0;fillColor=none;top=0;left=0;bottom=0;right=0;align=left;spacingLeft=6;fontStyle=5;overflow=hidden;" parent="gmR-Pt_a6dd02n7bJfiR-543" vertex="1">
                    <mxGeometry x="30" width="150" height="30" as="geometry"/>
                </mxCell>
                <mxCell id="gmR-Pt_a6dd02n7bJfiR-546" value="" style="shape=partialRectangle;collapsible=0;dropTarget=0;pointerEvents=0;fillColor=none;top=0;left=0;bottom=0;right=0;points=[[0,0.5],[1,0.5]];portConstraint=eastwest;" parent="gmR-Pt_a6dd02n7bJfiR-542" vertex="1">
                    <mxGeometry y="60" width="180" height="20" as="geometry"/>
                </mxCell>
                <mxCell id="gmR-Pt_a6dd02n7bJfiR-547" value="" style="shape=partialRectangle;connectable=0;fillColor=none;top=0;left=0;bottom=0;right=0;editable=1;overflow=hidden;" parent="gmR-Pt_a6dd02n7bJfiR-546" vertex="1">
                    <mxGeometry width="30" height="20" as="geometry"/>
                </mxCell>
                <mxCell id="gmR-Pt_a6dd02n7bJfiR-548" value="subject" style="shape=partialRectangle;connectable=0;fillColor=none;top=0;left=0;bottom=0;right=0;align=left;spacingLeft=6;overflow=hidden;" parent="gmR-Pt_a6dd02n7bJfiR-546" vertex="1">
                    <mxGeometry x="30" width="150" height="20" as="geometry"/>
                </mxCell>
                <mxCell id="gmR-Pt_a6dd02n7bJfiR-549" value="" style="shape=partialRectangle;collapsible=0;dropTarget=0;pointerEvents=0;fillColor=none;top=0;left=0;bottom=0;right=0;points=[[0,0.5],[1,0.5]];portConstraint=eastwest;" parent="gmR-Pt_a6dd02n7bJfiR-542" vertex="1">
                    <mxGeometry y="80" width="180" height="20" as="geometry"/>
                </mxCell>
                <mxCell id="gmR-Pt_a6dd02n7bJfiR-550" value="FK" style="shape=partialRectangle;connectable=0;fillColor=none;top=0;left=0;bottom=0;right=0;editable=1;overflow=hidden;fontStyle=1" parent="gmR-Pt_a6dd02n7bJfiR-549" vertex="1">
                    <mxGeometry width="30" height="20" as="geometry"/>
                </mxCell>
                <mxCell id="gmR-Pt_a6dd02n7bJfiR-551" value="creator" style="shape=partialRectangle;connectable=0;fillColor=none;top=0;left=0;bottom=0;right=0;align=left;spacingLeft=6;overflow=hidden;" parent="gmR-Pt_a6dd02n7bJfiR-549" vertex="1">
                    <mxGeometry x="30" width="150" height="20" as="geometry"/>
                </mxCell>
                <mxCell id="gmR-Pt_a6dd02n7bJfiR-552" value="" style="shape=partialRectangle;collapsible=0;dropTarget=0;pointerEvents=0;fillColor=none;top=0;left=0;bottom=0;right=0;points=[[0,0.5],[1,0.5]];portConstraint=eastwest;" parent="gmR-Pt_a6dd02n7bJfiR-542" vertex="1">
                    <mxGeometry y="100" width="180" height="20" as="geometry"/>
                </mxCell>
                <mxCell id="gmR-Pt_a6dd02n7bJfiR-553" value="" style="shape=partialRectangle;connectable=0;fillColor=none;top=0;left=0;bottom=0;right=0;editable=1;overflow=hidden;" parent="gmR-Pt_a6dd02n7bJfiR-552" vertex="1">
                    <mxGeometry width="30" height="20" as="geometry"/>
                </mxCell>
                <mxCell id="gmR-Pt_a6dd02n7bJfiR-554" value="visibility" style="shape=partialRectangle;connectable=0;fillColor=none;top=0;left=0;bottom=0;right=0;align=left;spacingLeft=6;overflow=hidden;" parent="gmR-Pt_a6dd02n7bJfiR-552" vertex="1">
                    <mxGeometry x="30" width="150" height="20" as="geometry"/>
                </mxCell>
                <mxCell id="gmR-Pt_a6dd02n7bJfiR-555" value="" style="shape=partialRectangle;collapsible=0;dropTarget=0;pointerEvents=0;fillColor=none;top=0;left=0;bottom=0;right=0;points=[[0,0.5],[1,0.5]];portConstraint=eastwest;" parent="gmR-Pt_a6dd02n7bJfiR-542" vertex="1">
                    <mxGeometry y="120" width="180" height="20" as="geometry"/>
                </mxCell>
                <mxCell id="gmR-Pt_a6dd02n7bJfiR-556" value="" style="shape=partialRectangle;connectable=0;fillColor=none;top=0;left=0;bottom=0;right=0;editable=1;overflow=hidden;fontStyle=1" parent="gmR-Pt_a6dd02n7bJfiR-555" vertex="1">
                    <mxGeometry width="30" height="20" as="geometry"/>
                </mxCell>
                <mxCell id="gmR-Pt_a6dd02n7bJfiR-557" value="link" style="shape=partialRectangle;connectable=0;fillColor=none;top=0;left=0;bottom=0;right=0;align=left;spacingLeft=6;overflow=hidden;" parent="gmR-Pt_a6dd02n7bJfiR-555" vertex="1">
                    <mxGeometry x="30" width="150" height="20" as="geometry"/>
                </mxCell>
                <mxCell id="gmR-Pt_a6dd02n7bJfiR-567" value="" style="shape=partialRectangle;collapsible=0;dropTarget=0;pointerEvents=0;fillColor=none;top=0;left=0;bottom=0;right=0;points=[[0,0.5],[1,0.5]];portConstraint=eastwest;" parent="gmR-Pt_a6dd02n7bJfiR-542" vertex="1">
                    <mxGeometry y="140" width="180" height="20" as="geometry"/>
                </mxCell>
                <mxCell id="gmR-Pt_a6dd02n7bJfiR-568" value="" style="shape=partialRectangle;connectable=0;fillColor=none;top=0;left=0;bottom=0;right=0;editable=1;overflow=hidden;fontStyle=1" parent="gmR-Pt_a6dd02n7bJfiR-567" vertex="1">
                    <mxGeometry width="30" height="20" as="geometry"/>
                </mxCell>
                <mxCell id="gmR-Pt_a6dd02n7bJfiR-569" value="status" style="shape=partialRectangle;connectable=0;fillColor=none;top=0;left=0;bottom=0;right=0;align=left;spacingLeft=6;overflow=hidden;" parent="gmR-Pt_a6dd02n7bJfiR-567" vertex="1">
                    <mxGeometry x="30" width="150" height="20" as="geometry"/>
                </mxCell>
                <mxCell id="gmR-Pt_a6dd02n7bJfiR-558" value="" style="shape=partialRectangle;collapsible=0;dropTarget=0;pointerEvents=0;fillColor=none;top=0;left=0;bottom=0;right=0;points=[[0,0.5],[1,0.5]];portConstraint=eastwest;" parent="gmR-Pt_a6dd02n7bJfiR-542" vertex="1">
                    <mxGeometry y="160" width="180" height="20" as="geometry"/>
                </mxCell>
                <mxCell id="gmR-Pt_a6dd02n7bJfiR-559" value="" style="shape=partialRectangle;connectable=0;fillColor=none;top=0;left=0;bottom=0;right=0;editable=1;overflow=hidden;" parent="gmR-Pt_a6dd02n7bJfiR-558" vertex="1">
                    <mxGeometry width="30" height="20" as="geometry"/>
                </mxCell>
                <mxCell id="gmR-Pt_a6dd02n7bJfiR-560" value="created_at" style="shape=partialRectangle;connectable=0;fillColor=none;top=0;left=0;bottom=0;right=0;align=left;spacingLeft=6;overflow=hidden;" parent="gmR-Pt_a6dd02n7bJfiR-558" vertex="1">
                    <mxGeometry x="30" width="150" height="20" as="geometry"/>
                </mxCell>
                <mxCell id="gmR-Pt_a6dd02n7bJfiR-561" value="" style="shape=partialRectangle;collapsible=0;dropTarget=0;pointerEvents=0;fillColor=none;top=0;left=0;bottom=0;right=0;points=[[0,0.5],[1,0.5]];portConstraint=eastwest;" parent="gmR-Pt_a6dd02n7bJfiR-542" vertex="1">
                    <mxGeometry y="180" width="180" height="20" as="geometry"/>
                </mxCell>
                <mxCell id="gmR-Pt_a6dd02n7bJfiR-562" value="" style="shape=partialRectangle;connectable=0;fillColor=none;top=0;left=0;bottom=0;right=0;editable=1;overflow=hidden;" parent="gmR-Pt_a6dd02n7bJfiR-561" vertex="1">
                    <mxGeometry width="30" height="20" as="geometry"/>
                </mxCell>
                <mxCell id="gmR-Pt_a6dd02n7bJfiR-563" value="updated_at" style="shape=partialRectangle;connectable=0;fillColor=none;top=0;left=0;bottom=0;right=0;align=left;spacingLeft=6;overflow=hidden;" parent="gmR-Pt_a6dd02n7bJfiR-561" vertex="1">
                    <mxGeometry x="30" width="150" height="20" as="geometry"/>
                </mxCell>
                <mxCell id="gmR-Pt_a6dd02n7bJfiR-564" value="" style="shape=partialRectangle;collapsible=0;dropTarget=0;pointerEvents=0;fillColor=none;top=0;left=0;bottom=0;right=0;points=[[0,0.5],[1,0.5]];portConstraint=eastwest;" parent="gmR-Pt_a6dd02n7bJfiR-542" vertex="1">
                    <mxGeometry y="200" width="180" height="20" as="geometry"/>
                </mxCell>
                <mxCell id="gmR-Pt_a6dd02n7bJfiR-565" value="" style="shape=partialRectangle;connectable=0;fillColor=none;top=0;left=0;bottom=0;right=0;editable=1;overflow=hidden;" parent="gmR-Pt_a6dd02n7bJfiR-564" vertex="1">
                    <mxGeometry width="30" height="20" as="geometry"/>
                </mxCell>
                <mxCell id="gmR-Pt_a6dd02n7bJfiR-566" value="deleted_at" style="shape=partialRectangle;connectable=0;fillColor=none;top=0;left=0;bottom=0;right=0;align=left;spacingLeft=6;overflow=hidden;" parent="gmR-Pt_a6dd02n7bJfiR-564" vertex="1">
                    <mxGeometry x="30" width="150" height="20" as="geometry"/>
                </mxCell>
                <mxCell id="gmR-Pt_a6dd02n7bJfiR-570" value="comments" style="shape=table;startSize=30;container=1;collapsible=1;childLayout=tableLayout;fixedRows=1;rowLines=0;fontStyle=1;align=center;resizeLast=1;" parent="1" vertex="1">
                    <mxGeometry x="860" y="40" width="180" height="180" as="geometry"/>
                </mxCell>
                <mxCell id="gmR-Pt_a6dd02n7bJfiR-571" value="" style="shape=partialRectangle;collapsible=0;dropTarget=0;pointerEvents=0;fillColor=none;top=0;left=0;bottom=1;right=0;points=[[0,0.5],[1,0.5]];portConstraint=eastwest;" parent="gmR-Pt_a6dd02n7bJfiR-570" vertex="1">
                    <mxGeometry y="30" width="180" height="30" as="geometry"/>
                </mxCell>
                <mxCell id="gmR-Pt_a6dd02n7bJfiR-572" value="PK" style="shape=partialRectangle;connectable=0;fillColor=none;top=0;left=0;bottom=0;right=0;fontStyle=1;overflow=hidden;" parent="gmR-Pt_a6dd02n7bJfiR-571" vertex="1">
                    <mxGeometry width="30" height="30" as="geometry"/>
                </mxCell>
                <mxCell id="gmR-Pt_a6dd02n7bJfiR-573" value="id" style="shape=partialRectangle;connectable=0;fillColor=none;top=0;left=0;bottom=0;right=0;align=left;spacingLeft=6;fontStyle=5;overflow=hidden;" parent="gmR-Pt_a6dd02n7bJfiR-571" vertex="1">
                    <mxGeometry x="30" width="150" height="30" as="geometry"/>
                </mxCell>
                <mxCell id="gmR-Pt_a6dd02n7bJfiR-574" value="" style="shape=partialRectangle;collapsible=0;dropTarget=0;pointerEvents=0;fillColor=none;top=0;left=0;bottom=0;right=0;points=[[0,0.5],[1,0.5]];portConstraint=eastwest;" parent="gmR-Pt_a6dd02n7bJfiR-570" vertex="1">
                    <mxGeometry y="60" width="180" height="20" as="geometry"/>
                </mxCell>
                <mxCell id="gmR-Pt_a6dd02n7bJfiR-575" value="FK" style="shape=partialRectangle;connectable=0;fillColor=none;top=0;left=0;bottom=0;right=0;editable=1;overflow=hidden;fontStyle=1" parent="gmR-Pt_a6dd02n7bJfiR-574" vertex="1">
                    <mxGeometry width="30" height="20" as="geometry"/>
                </mxCell>
                <mxCell id="gmR-Pt_a6dd02n7bJfiR-576" value="user_id" style="shape=partialRectangle;connectable=0;fillColor=none;top=0;left=0;bottom=0;right=0;align=left;spacingLeft=6;overflow=hidden;" parent="gmR-Pt_a6dd02n7bJfiR-574" vertex="1">
                    <mxGeometry x="30" width="150" height="20" as="geometry"/>
                </mxCell>
                <mxCell id="gmR-Pt_a6dd02n7bJfiR-577" value="" style="shape=partialRectangle;collapsible=0;dropTarget=0;pointerEvents=0;fillColor=none;top=0;left=0;bottom=0;right=0;points=[[0,0.5],[1,0.5]];portConstraint=eastwest;" parent="gmR-Pt_a6dd02n7bJfiR-570" vertex="1">
                    <mxGeometry y="80" width="180" height="20" as="geometry"/>
                </mxCell>
                <mxCell id="gmR-Pt_a6dd02n7bJfiR-578" value="FK" style="shape=partialRectangle;connectable=0;fillColor=none;top=0;left=0;bottom=0;right=0;editable=1;overflow=hidden;fontStyle=1" parent="gmR-Pt_a6dd02n7bJfiR-577" vertex="1">
                    <mxGeometry width="30" height="20" as="geometry"/>
                </mxCell>
                <mxCell id="gmR-Pt_a6dd02n7bJfiR-579" value="thread_id" style="shape=partialRectangle;connectable=0;fillColor=none;top=0;left=0;bottom=0;right=0;align=left;spacingLeft=6;overflow=hidden;" parent="gmR-Pt_a6dd02n7bJfiR-577" vertex="1">
                    <mxGeometry x="30" width="150" height="20" as="geometry"/>
                </mxCell>
                <mxCell id="gmR-Pt_a6dd02n7bJfiR-580" value="" style="shape=partialRectangle;collapsible=0;dropTarget=0;pointerEvents=0;fillColor=none;top=0;left=0;bottom=0;right=0;points=[[0,0.5],[1,0.5]];portConstraint=eastwest;" parent="gmR-Pt_a6dd02n7bJfiR-570" vertex="1">
                    <mxGeometry y="100" width="180" height="20" as="geometry"/>
                </mxCell>
                <mxCell id="gmR-Pt_a6dd02n7bJfiR-581" value="" style="shape=partialRectangle;connectable=0;fillColor=none;top=0;left=0;bottom=0;right=0;editable=1;overflow=hidden;" parent="gmR-Pt_a6dd02n7bJfiR-580" vertex="1">
                    <mxGeometry width="30" height="20" as="geometry"/>
                </mxCell>
                <mxCell id="gmR-Pt_a6dd02n7bJfiR-582" value="comment" style="shape=partialRectangle;connectable=0;fillColor=none;top=0;left=0;bottom=0;right=0;align=left;spacingLeft=6;overflow=hidden;" parent="gmR-Pt_a6dd02n7bJfiR-580" vertex="1">
                    <mxGeometry x="30" width="150" height="20" as="geometry"/>
                </mxCell>
                <mxCell id="5LnNcQllCpH-_-lJVJDu-41" value="" style="shape=partialRectangle;collapsible=0;dropTarget=0;pointerEvents=0;fillColor=none;top=0;left=0;bottom=0;right=0;points=[[0,0.5],[1,0.5]];portConstraint=eastwest;" parent="gmR-Pt_a6dd02n7bJfiR-570" vertex="1">
                    <mxGeometry y="120" width="180" height="20" as="geometry"/>
                </mxCell>
                <mxCell id="5LnNcQllCpH-_-lJVJDu-42" value="FK" style="shape=partialRectangle;connectable=0;fillColor=none;top=0;left=0;bottom=0;right=0;editable=1;overflow=hidden;fontStyle=1" parent="5LnNcQllCpH-_-lJVJDu-41" vertex="1">
                    <mxGeometry width="30" height="20" as="geometry"/>
                </mxCell>
                <mxCell id="5LnNcQllCpH-_-lJVJDu-43" value="deleted_by" style="shape=partialRectangle;connectable=0;fillColor=none;top=0;left=0;bottom=0;right=0;align=left;spacingLeft=6;overflow=hidden;" parent="5LnNcQllCpH-_-lJVJDu-41" vertex="1">
                    <mxGeometry x="30" width="150" height="20" as="geometry"/>
                </mxCell>
                <mxCell id="gmR-Pt_a6dd02n7bJfiR-589" value="" style="shape=partialRectangle;collapsible=0;dropTarget=0;pointerEvents=0;fillColor=none;top=0;left=0;bottom=0;right=0;points=[[0,0.5],[1,0.5]];portConstraint=eastwest;" parent="gmR-Pt_a6dd02n7bJfiR-570" vertex="1">
                    <mxGeometry y="140" width="180" height="20" as="geometry"/>
                </mxCell>
                <mxCell id="gmR-Pt_a6dd02n7bJfiR-590" value="" style="shape=partialRectangle;connectable=0;fillColor=none;top=0;left=0;bottom=0;right=0;editable=1;overflow=hidden;" parent="gmR-Pt_a6dd02n7bJfiR-589" vertex="1">
                    <mxGeometry width="30" height="20" as="geometry"/>
                </mxCell>
                <mxCell id="gmR-Pt_a6dd02n7bJfiR-591" value="comment_date" style="shape=partialRectangle;connectable=0;fillColor=none;top=0;left=0;bottom=0;right=0;align=left;spacingLeft=6;overflow=hidden;" parent="gmR-Pt_a6dd02n7bJfiR-589" vertex="1">
                    <mxGeometry x="30" width="150" height="20" as="geometry"/>
                </mxCell>
                <mxCell id="gmR-Pt_a6dd02n7bJfiR-595" value="" style="shape=partialRectangle;collapsible=0;dropTarget=0;pointerEvents=0;fillColor=none;top=0;left=0;bottom=0;right=0;points=[[0,0.5],[1,0.5]];portConstraint=eastwest;" parent="gmR-Pt_a6dd02n7bJfiR-570" vertex="1">
                    <mxGeometry y="160" width="180" height="20" as="geometry"/>
                </mxCell>
                <mxCell id="gmR-Pt_a6dd02n7bJfiR-596" value="" style="shape=partialRectangle;connectable=0;fillColor=none;top=0;left=0;bottom=0;right=0;editable=1;overflow=hidden;" parent="gmR-Pt_a6dd02n7bJfiR-595" vertex="1">
                    <mxGeometry width="30" height="20" as="geometry"/>
                </mxCell>
                <mxCell id="gmR-Pt_a6dd02n7bJfiR-597" value="deleted_at" style="shape=partialRectangle;connectable=0;fillColor=none;top=0;left=0;bottom=0;right=0;align=left;spacingLeft=6;overflow=hidden;" parent="gmR-Pt_a6dd02n7bJfiR-595" vertex="1">
                    <mxGeometry x="30" width="150" height="20" as="geometry"/>
                </mxCell>
                <mxCell id="gmR-Pt_a6dd02n7bJfiR-598" value="" style="edgeStyle=entityRelationEdgeStyle;fontSize=12;html=1;endArrow=ERoneToMany;" parent="1" source="gmR-Pt_a6dd02n7bJfiR-15" target="gmR-Pt_a6dd02n7bJfiR-574" edge="1">
                    <mxGeometry width="100" height="100" relative="1" as="geometry">
                        <mxPoint x="760" y="230" as="sourcePoint"/>
                        <mxPoint x="860" y="130" as="targetPoint"/>
                    </mxGeometry>
                </mxCell>
                <mxCell id="gmR-Pt_a6dd02n7bJfiR-599" value="" style="edgeStyle=entityRelationEdgeStyle;fontSize=12;html=1;endArrow=ERoneToMany;" parent="1" source="gmR-Pt_a6dd02n7bJfiR-549" target="gmR-Pt_a6dd02n7bJfiR-15" edge="1">
                    <mxGeometry width="100" height="100" relative="1" as="geometry">
                        <mxPoint x="780" y="280" as="sourcePoint"/>
                        <mxPoint x="880" y="180" as="targetPoint"/>
                    </mxGeometry>
                </mxCell>
                <mxCell id="gmR-Pt_a6dd02n7bJfiR-600" value="" style="edgeStyle=entityRelationEdgeStyle;fontSize=12;html=1;endArrow=ERoneToMany;" parent="1" source="gmR-Pt_a6dd02n7bJfiR-543" target="gmR-Pt_a6dd02n7bJfiR-577" edge="1">
                    <mxGeometry width="100" height="100" relative="1" as="geometry">
                        <mxPoint x="790" y="290" as="sourcePoint"/>
                        <mxPoint x="890" y="190" as="targetPoint"/>
                    </mxGeometry>
                </mxCell>
                <mxCell id="5LnNcQllCpH-_-lJVJDu-1" value="activity_log" style="shape=table;startSize=30;container=1;collapsible=1;childLayout=tableLayout;fixedRows=1;rowLines=0;fontStyle=1;align=center;resizeLast=1;" parent="1" vertex="1">
                    <mxGeometry x="140" y="475" width="180" height="160" as="geometry">
                        <mxRectangle x="400" y="615" width="120" height="30" as="alternateBounds"/>
                    </mxGeometry>
                </mxCell>
                <mxCell id="5LnNcQllCpH-_-lJVJDu-2" value="" style="shape=partialRectangle;collapsible=0;dropTarget=0;pointerEvents=0;fillColor=none;top=0;left=0;bottom=1;right=0;points=[[0,0.5],[1,0.5]];portConstraint=eastwest;" parent="5LnNcQllCpH-_-lJVJDu-1" vertex="1">
                    <mxGeometry y="30" width="180" height="30" as="geometry"/>
                </mxCell>
                <mxCell id="5LnNcQllCpH-_-lJVJDu-3" value="PK" style="shape=partialRectangle;connectable=0;fillColor=none;top=0;left=0;bottom=0;right=0;fontStyle=1;overflow=hidden;" parent="5LnNcQllCpH-_-lJVJDu-2" vertex="1">
                    <mxGeometry width="30" height="30" as="geometry"/>
                </mxCell>
                <mxCell id="5LnNcQllCpH-_-lJVJDu-4" value="id" style="shape=partialRectangle;connectable=0;fillColor=none;top=0;left=0;bottom=0;right=0;align=left;spacingLeft=6;fontStyle=5;overflow=hidden;" parent="5LnNcQllCpH-_-lJVJDu-2" vertex="1">
                    <mxGeometry x="30" width="150" height="30" as="geometry"/>
                </mxCell>
                <mxCell id="5LnNcQllCpH-_-lJVJDu-35" value="" style="shape=partialRectangle;collapsible=0;dropTarget=0;pointerEvents=0;fillColor=none;top=0;left=0;bottom=0;right=0;points=[[0,0.5],[1,0.5]];portConstraint=eastwest;" parent="5LnNcQllCpH-_-lJVJDu-1" vertex="1">
                    <mxGeometry y="60" width="180" height="20" as="geometry"/>
                </mxCell>
                <mxCell id="5LnNcQllCpH-_-lJVJDu-36" value="FK" style="shape=partialRectangle;connectable=0;fillColor=none;top=0;left=0;bottom=0;right=0;editable=1;overflow=hidden;fontStyle=1" parent="5LnNcQllCpH-_-lJVJDu-35" vertex="1">
                    <mxGeometry width="30" height="20" as="geometry"/>
                </mxCell>
                <mxCell id="5LnNcQllCpH-_-lJVJDu-37" value="user" style="shape=partialRectangle;connectable=0;fillColor=none;top=0;left=0;bottom=0;right=0;align=left;spacingLeft=6;overflow=hidden;" parent="5LnNcQllCpH-_-lJVJDu-35" vertex="1">
                    <mxGeometry x="30" width="150" height="20" as="geometry"/>
                </mxCell>
                <mxCell id="5LnNcQllCpH-_-lJVJDu-14" value="" style="shape=partialRectangle;collapsible=0;dropTarget=0;pointerEvents=0;fillColor=none;top=0;left=0;bottom=0;right=0;points=[[0,0.5],[1,0.5]];portConstraint=eastwest;" parent="5LnNcQllCpH-_-lJVJDu-1" vertex="1">
                    <mxGeometry y="80" width="180" height="20" as="geometry"/>
                </mxCell>
                <mxCell id="5LnNcQllCpH-_-lJVJDu-15" value="" style="shape=partialRectangle;connectable=0;fillColor=none;top=0;left=0;bottom=0;right=0;editable=1;overflow=hidden;fontStyle=1" parent="5LnNcQllCpH-_-lJVJDu-14" vertex="1">
                    <mxGeometry width="30" height="20" as="geometry"/>
                </mxCell>
                <mxCell id="5LnNcQllCpH-_-lJVJDu-16" value="description" style="shape=partialRectangle;connectable=0;fillColor=none;top=0;left=0;bottom=0;right=0;align=left;spacingLeft=6;overflow=hidden;" parent="5LnNcQllCpH-_-lJVJDu-14" vertex="1">
                    <mxGeometry x="30" width="150" height="20" as="geometry"/>
                </mxCell>
                <mxCell id="5LnNcQllCpH-_-lJVJDu-20" value="" style="shape=partialRectangle;collapsible=0;dropTarget=0;pointerEvents=0;fillColor=none;top=0;left=0;bottom=0;right=0;points=[[0,0.5],[1,0.5]];portConstraint=eastwest;" parent="5LnNcQllCpH-_-lJVJDu-1" vertex="1">
                    <mxGeometry y="100" width="180" height="20" as="geometry"/>
                </mxCell>
                <mxCell id="5LnNcQllCpH-_-lJVJDu-21" value="" style="shape=partialRectangle;connectable=0;fillColor=none;top=0;left=0;bottom=0;right=0;editable=1;overflow=hidden;" parent="5LnNcQllCpH-_-lJVJDu-20" vertex="1">
                    <mxGeometry width="30" height="20" as="geometry"/>
                </mxCell>
                <mxCell id="5LnNcQllCpH-_-lJVJDu-22" value="created_at" style="shape=partialRectangle;connectable=0;fillColor=none;top=0;left=0;bottom=0;right=0;align=left;spacingLeft=6;overflow=hidden;" parent="5LnNcQllCpH-_-lJVJDu-20" vertex="1">
                    <mxGeometry x="30" width="150" height="20" as="geometry"/>
                </mxCell>
                <mxCell id="5LnNcQllCpH-_-lJVJDu-23" value="" style="shape=partialRectangle;collapsible=0;dropTarget=0;pointerEvents=0;fillColor=none;top=0;left=0;bottom=0;right=0;points=[[0,0.5],[1,0.5]];portConstraint=eastwest;" parent="5LnNcQllCpH-_-lJVJDu-1" vertex="1">
                    <mxGeometry y="120" width="180" height="20" as="geometry"/>
                </mxCell>
                <mxCell id="5LnNcQllCpH-_-lJVJDu-24" value="" style="shape=partialRectangle;connectable=0;fillColor=none;top=0;left=0;bottom=0;right=0;editable=1;overflow=hidden;" parent="5LnNcQllCpH-_-lJVJDu-23" vertex="1">
                    <mxGeometry width="30" height="20" as="geometry"/>
                </mxCell>
                <mxCell id="5LnNcQllCpH-_-lJVJDu-25" value="updated_at" style="shape=partialRectangle;connectable=0;fillColor=none;top=0;left=0;bottom=0;right=0;align=left;spacingLeft=6;overflow=hidden;" parent="5LnNcQllCpH-_-lJVJDu-23" vertex="1">
                    <mxGeometry x="30" width="150" height="20" as="geometry"/>
                </mxCell>
                <mxCell id="5LnNcQllCpH-_-lJVJDu-26" value="" style="shape=partialRectangle;collapsible=0;dropTarget=0;pointerEvents=0;fillColor=none;top=0;left=0;bottom=0;right=0;points=[[0,0.5],[1,0.5]];portConstraint=eastwest;" parent="5LnNcQllCpH-_-lJVJDu-1" vertex="1">
                    <mxGeometry y="140" width="180" height="20" as="geometry"/>
                </mxCell>
                <mxCell id="5LnNcQllCpH-_-lJVJDu-27" value="" style="shape=partialRectangle;connectable=0;fillColor=none;top=0;left=0;bottom=0;right=0;editable=1;overflow=hidden;" parent="5LnNcQllCpH-_-lJVJDu-26" vertex="1">
                    <mxGeometry width="30" height="20" as="geometry"/>
                </mxCell>
                <mxCell id="5LnNcQllCpH-_-lJVJDu-28" value="deleted_at" style="shape=partialRectangle;connectable=0;fillColor=none;top=0;left=0;bottom=0;right=0;align=left;spacingLeft=6;overflow=hidden;" parent="5LnNcQllCpH-_-lJVJDu-26" vertex="1">
                    <mxGeometry x="30" width="150" height="20" as="geometry"/>
                </mxCell>
                <mxCell id="5LnNcQllCpH-_-lJVJDu-31" value="" style="edgeStyle=entityRelationEdgeStyle;fontSize=12;html=1;endArrow=ERoneToMany;" parent="1" source="gmR-Pt_a6dd02n7bJfiR-50" target="5LnNcQllCpH-_-lJVJDu-35" edge="1">
                    <mxGeometry width="100" height="100" relative="1" as="geometry">
                        <mxPoint x="230" y="760" as="sourcePoint"/>
                        <mxPoint x="330" y="660" as="targetPoint"/>
                    </mxGeometry>
                </mxCell>
                <mxCell id="5LnNcQllCpH-_-lJVJDu-57" value="constitutions" style="shape=table;startSize=30;container=1;collapsible=1;childLayout=tableLayout;fixedRows=1;rowLines=0;fontStyle=1;align=center;resizeLast=1;" parent="1" vertex="1">
                    <mxGeometry x="1230" y="730" width="180" height="160" as="geometry"/>
                </mxCell>
                <mxCell id="5LnNcQllCpH-_-lJVJDu-58" value="" style="shape=partialRectangle;collapsible=0;dropTarget=0;pointerEvents=0;fillColor=none;top=0;left=0;bottom=1;right=0;points=[[0,0.5],[1,0.5]];portConstraint=eastwest;" parent="5LnNcQllCpH-_-lJVJDu-57" vertex="1">
                    <mxGeometry y="30" width="180" height="30" as="geometry"/>
                </mxCell>
                <mxCell id="5LnNcQllCpH-_-lJVJDu-59" value="PK" style="shape=partialRectangle;connectable=0;fillColor=none;top=0;left=0;bottom=0;right=0;fontStyle=1;overflow=hidden;" parent="5LnNcQllCpH-_-lJVJDu-58" vertex="1">
                    <mxGeometry width="30" height="30" as="geometry"/>
                </mxCell>
                <mxCell id="5LnNcQllCpH-_-lJVJDu-60" value="id" style="shape=partialRectangle;connectable=0;fillColor=none;top=0;left=0;bottom=0;right=0;align=left;spacingLeft=6;fontStyle=5;overflow=hidden;" parent="5LnNcQllCpH-_-lJVJDu-58" vertex="1">
                    <mxGeometry x="30" width="150" height="30" as="geometry"/>
                </mxCell>
                <mxCell id="5LnNcQllCpH-_-lJVJDu-64" value="" style="shape=partialRectangle;collapsible=0;dropTarget=0;pointerEvents=0;fillColor=none;top=0;left=0;bottom=0;right=0;points=[[0,0.5],[1,0.5]];portConstraint=eastwest;" parent="5LnNcQllCpH-_-lJVJDu-57" vertex="1">
                    <mxGeometry y="60" width="180" height="20" as="geometry"/>
                </mxCell>
                <mxCell id="5LnNcQllCpH-_-lJVJDu-65" value="" style="shape=partialRectangle;connectable=0;fillColor=none;top=0;left=0;bottom=0;right=0;editable=1;overflow=hidden;" parent="5LnNcQllCpH-_-lJVJDu-64" vertex="1">
                    <mxGeometry width="30" height="20" as="geometry"/>
                </mxCell>
                <mxCell id="5LnNcQllCpH-_-lJVJDu-66" value="area" style="shape=partialRectangle;connectable=0;fillColor=none;top=0;left=0;bottom=0;right=0;align=left;spacingLeft=6;overflow=hidden;" parent="5LnNcQllCpH-_-lJVJDu-64" vertex="1">
                    <mxGeometry x="30" width="150" height="20" as="geometry"/>
                </mxCell>
                <mxCell id="5LnNcQllCpH-_-lJVJDu-67" value="" style="shape=partialRectangle;collapsible=0;dropTarget=0;pointerEvents=0;fillColor=none;top=0;left=0;bottom=0;right=0;points=[[0,0.5],[1,0.5]];portConstraint=eastwest;" parent="5LnNcQllCpH-_-lJVJDu-57" vertex="1">
                    <mxGeometry y="80" width="180" height="20" as="geometry"/>
                </mxCell>
                <mxCell id="5LnNcQllCpH-_-lJVJDu-68" value="" style="shape=partialRectangle;connectable=0;fillColor=none;top=0;left=0;bottom=0;right=0;editable=1;overflow=hidden;fontStyle=1" parent="5LnNcQllCpH-_-lJVJDu-67" vertex="1">
                    <mxGeometry width="30" height="20" as="geometry"/>
                </mxCell>
                <mxCell id="5LnNcQllCpH-_-lJVJDu-69" value="content" style="shape=partialRectangle;connectable=0;fillColor=none;top=0;left=0;bottom=0;right=0;align=left;spacingLeft=6;overflow=hidden;" parent="5LnNcQllCpH-_-lJVJDu-67" vertex="1">
                    <mxGeometry x="30" width="150" height="20" as="geometry"/>
                </mxCell>
                <mxCell id="5LnNcQllCpH-_-lJVJDu-70" value="" style="shape=partialRectangle;collapsible=0;dropTarget=0;pointerEvents=0;fillColor=none;top=0;left=0;bottom=0;right=0;points=[[0,0.5],[1,0.5]];portConstraint=eastwest;" parent="5LnNcQllCpH-_-lJVJDu-57" vertex="1">
                    <mxGeometry y="100" width="180" height="20" as="geometry"/>
                </mxCell>
                <mxCell id="5LnNcQllCpH-_-lJVJDu-71" value="" style="shape=partialRectangle;connectable=0;fillColor=none;top=0;left=0;bottom=0;right=0;editable=1;overflow=hidden;" parent="5LnNcQllCpH-_-lJVJDu-70" vertex="1">
                    <mxGeometry width="30" height="20" as="geometry"/>
                </mxCell>
                <mxCell id="5LnNcQllCpH-_-lJVJDu-72" value="created_at" style="shape=partialRectangle;connectable=0;fillColor=none;top=0;left=0;bottom=0;right=0;align=left;spacingLeft=6;overflow=hidden;" parent="5LnNcQllCpH-_-lJVJDu-70" vertex="1">
                    <mxGeometry x="30" width="150" height="20" as="geometry"/>
                </mxCell>
                <mxCell id="5LnNcQllCpH-_-lJVJDu-73" value="" style="shape=partialRectangle;collapsible=0;dropTarget=0;pointerEvents=0;fillColor=none;top=0;left=0;bottom=0;right=0;points=[[0,0.5],[1,0.5]];portConstraint=eastwest;" parent="5LnNcQllCpH-_-lJVJDu-57" vertex="1">
                    <mxGeometry y="120" width="180" height="20" as="geometry"/>
                </mxCell>
                <mxCell id="5LnNcQllCpH-_-lJVJDu-74" value="" style="shape=partialRectangle;connectable=0;fillColor=none;top=0;left=0;bottom=0;right=0;editable=1;overflow=hidden;" parent="5LnNcQllCpH-_-lJVJDu-73" vertex="1">
                    <mxGeometry width="30" height="20" as="geometry"/>
                </mxCell>
                <mxCell id="5LnNcQllCpH-_-lJVJDu-75" value="updated_at" style="shape=partialRectangle;connectable=0;fillColor=none;top=0;left=0;bottom=0;right=0;align=left;spacingLeft=6;overflow=hidden;" parent="5LnNcQllCpH-_-lJVJDu-73" vertex="1">
                    <mxGeometry x="30" width="150" height="20" as="geometry"/>
                </mxCell>
                <mxCell id="5LnNcQllCpH-_-lJVJDu-76" value="" style="shape=partialRectangle;collapsible=0;dropTarget=0;pointerEvents=0;fillColor=none;top=0;left=0;bottom=0;right=0;points=[[0,0.5],[1,0.5]];portConstraint=eastwest;" parent="5LnNcQllCpH-_-lJVJDu-57" vertex="1">
                    <mxGeometry y="140" width="180" height="20" as="geometry"/>
                </mxCell>
                <mxCell id="5LnNcQllCpH-_-lJVJDu-77" value="" style="shape=partialRectangle;connectable=0;fillColor=none;top=0;left=0;bottom=0;right=0;editable=1;overflow=hidden;" parent="5LnNcQllCpH-_-lJVJDu-76" vertex="1">
                    <mxGeometry width="30" height="20" as="geometry"/>
                </mxCell>
                <mxCell id="5LnNcQllCpH-_-lJVJDu-78" value="deleted_at" style="shape=partialRectangle;connectable=0;fillColor=none;top=0;left=0;bottom=0;right=0;align=left;spacingLeft=6;overflow=hidden;" parent="5LnNcQllCpH-_-lJVJDu-76" vertex="1">
                    <mxGeometry x="30" width="150" height="20" as="geometry"/>
                </mxCell>
            </root>
        </mxGraphModel>
    </diagram>
</mxfile>